<svg xmlns="http://www.w3.org/2000/svg" width="2593" height="1845" viewBox="0 0 2593 1845" version="1.1"><path d="M 1500 31.691 C 1412.753 36.791, 1335.705 61.176, 1276.637 102.382 C 1252.392 119.296, 1224.183 145.539, 1206.642 167.500 C 1160.781 224.916, 1131.220 297.318, 1120.083 379.500 C 1117.887 395.708, 1116 417.814, 1116 427.335 L 1116 433.270 1129.750 432.592 C 1278.111 425.282, 1394.552 398.918, 1494.500 350.008 C 1600.496 298.138, 1680.893 219.002, 1717.543 130.464 C 1721.452 121.020, 1727.236 103.902, 1726.699 103.365 C 1726.512 103.179, 1718.291 105.734, 1708.430 109.043 C 1617.555 139.536, 1543.132 156.812, 1518.862 153.047 C 1505.578 150.985, 1503.488 148.466, 1504.304 135.500 C 1505.783 112.012, 1523.986 79.662, 1560.834 35.038 L 1564.168 31 1534.834 31.185 C 1518.700 31.287, 1503.025 31.515, 1500 31.691 M 2382.500 681.094 C 2361.375 682.400, 2346.389 683.989, 2331.435 686.508 C 2219.915 705.293, 2131.885 776.322, 2072.124 895.739 C 2049.037 941.871, 2030.075 997.843, 2020.543 1048 C 2019.654 1052.675, 2018.724 1057.456, 2018.476 1058.625 C 2018.063 1060.571, 2019.011 1061.008, 2029.762 1063.820 C 2094.195 1080.673, 2179.226 1085.871, 2236 1076.427 C 2333.297 1060.243, 2421.748 1000.714, 2488.482 906.500 C 2508.412 878.363, 2526.947 846.492, 2540.195 817.577 C 2546.176 804.525, 2553.089 788, 2552.569 788 C 2552.418 788, 2546.940 790.527, 2540.397 793.615 C 2479.745 822.243, 2374.295 856.591, 2334.957 860.533 C 2327.146 861.316, 2320.390 859.803, 2319.525 857.079 C 2317.934 852.066, 2322.900 834.087, 2329.485 821.023 C 2340.931 798.315, 2356.596 779.525, 2404.539 731 C 2421.656 713.675, 2437.569 697.056, 2439.902 694.069 C 2444.726 687.893, 2448.213 681.547, 2447.290 680.624 C 2446.429 679.762, 2398.402 680.111, 2382.500 681.094 M 437 749.665 C 435.625 749.881, 427.975 750.972, 420 752.090 C 305.497 768.135, 208.502 825.413, 139.960 917.462 C 95.861 976.685, 62.803 1050.319, 45.583 1127.681 C 42.017 1143.702, 38.621 1162.955, 39.251 1163.585 C 39.885 1164.218, 64.970 1167.064, 82.828 1168.529 C 153.585 1174.331, 223.399 1169.138, 286.340 1153.391 C 404.022 1123.950, 505.740 1053.514, 570.749 956.447 C 590.715 926.636, 606.603 892.740, 608.608 875.678 C 609.534 867.800, 608.993 867.571, 591.216 868.312 C 566.994 869.322, 552.311 871.997, 497 885.474 C 437.489 899.974, 417.893 903.204, 402.457 901.057 C 380.132 897.952, 372.559 886.407, 379.487 866.038 C 384.342 851.765, 393.841 836.467, 417.808 804.324 C 444.017 769.174, 449 761.225, 449 754.568 C 449 749.527, 445.911 748.265, 437 749.665 M 1357.750 1037.743 C 1361.737 1037.932, 1368.263 1037.932, 1372.250 1037.743 C 1376.237 1037.553, 1372.975 1037.397, 1365 1037.397 C 1357.025 1037.397, 1353.763 1037.553, 1357.750 1037.743 M 1158.250 1064.742 C 1161.963 1064.934, 1168.037 1064.934, 1171.750 1064.742 C 1175.463 1064.549, 1172.425 1064.392, 1165 1064.392 C 1157.575 1064.392, 1154.537 1064.549, 1158.250 1064.742 M 1957.500 1198.922 C 1954.200 1199.901, 1949.025 1201.686, 1946 1202.888 C 1938.416 1205.903, 1902.998 1223.245, 1903.009 1223.937 C 1903.016 1224.404, 1957.873 1258.904, 1960.003 1259.781 C 1960.773 1260.098, 1966.936 1239.860, 1969.985 1227 C 1971.093 1222.325, 1972.290 1214.807, 1972.644 1210.294 C 1973.692 1196.945, 1970.995 1194.919, 1957.500 1198.922 M 935.667 1203.667 C 935.300 1204.033, 935.007 1204.821, 935.015 1205.417 C 935.024 1206.065, 935.348 1206, 935.820 1205.257 C 936.433 1204.291, 951.529 1203.955, 1003.555 1203.750 L 1070.500 1203.486 1003.417 1203.243 C 966.521 1203.109, 936.033 1203.300, 935.667 1203.667 M 1101.345 1204.543 C 1101.019 1205.392, 1101.034 1206.367, 1101.376 1206.710 C 1101.719 1207.053, 1102 1206.586, 1102 1205.673 C 1102 1204.143, 1107.937 1203.992, 1177.750 1203.750 L 1253.500 1203.487 1177.719 1203.244 C 1110.192 1203.027, 1101.873 1203.168, 1101.345 1204.543 M 1318.176 1203.750 C 1338.348 1203.901, 1371.648 1203.901, 1392.176 1203.750 C 1412.704 1203.599, 1396.200 1203.475, 1355.500 1203.475 C 1314.800 1203.475, 1298.004 1203.598, 1318.176 1203.750 M 1485 1203.730 C 1548.626 1204.421, 1597.767 1204.430, 1597.346 1203.750 C 1597.091 1203.338, 1566.196 1203.104, 1528.691 1203.232 C 1491.186 1203.359, 1471.525 1203.583, 1485 1203.730 M 2112.010 1245.170 C 2106.665 1246.719, 2089.937 1254.851, 2075.500 1262.917 C 2052.635 1275.693, 2021.913 1294.242, 2022.211 1295.091 C 2022.686 1296.445, 2079.374 1338.296, 2080.876 1338.402 C 2083.240 1338.569, 2109.989 1280.192, 2116.496 1260.665 C 2119.363 1252.062, 2119.592 1244.648, 2117 1244.338 C 2116.175 1244.239, 2113.930 1244.613, 2112.010 1245.170 M 1490.750 1325.747 C 1496.938 1325.922, 1507.063 1325.922, 1513.250 1325.747 C 1519.438 1325.571, 1514.375 1325.428, 1502 1325.428 C 1489.625 1325.428, 1484.563 1325.571, 1490.750 1325.747 M 1316.750 1326.747 C 1322.938 1326.922, 1333.063 1326.922, 1339.250 1326.747 C 1345.438 1326.571, 1340.375 1326.428, 1328 1326.428 C 1315.625 1326.428, 1310.563 1326.571, 1316.750 1326.747 M 1142.750 1327.747 C 1148.938 1327.922, 1159.063 1327.922, 1165.250 1327.747 C 1171.438 1327.571, 1166.375 1327.428, 1154 1327.428 C 1141.625 1327.428, 1136.563 1327.571, 1142.750 1327.747 M 968.750 1328.747 C 974.938 1328.922, 985.063 1328.922, 991.250 1328.747 C 997.438 1328.571, 992.375 1328.428, 980 1328.428 C 967.625 1328.428, 962.563 1328.571, 968.750 1328.747 M 1562.807 1355.747 C 1569.576 1355.921, 1580.376 1355.920, 1586.807 1355.746 C 1593.238 1355.572, 1587.700 1355.431, 1574.500 1355.431 C 1561.300 1355.432, 1556.038 1355.574, 1562.807 1355.747 M 1229.250 1356.749 C 1241.213 1356.908, 1260.787 1356.908, 1272.750 1356.749 C 1284.713 1356.589, 1274.925 1356.459, 1251 1356.459 C 1227.075 1356.459, 1217.287 1356.589, 1229.250 1356.749 M 1682.264 1406.948 C 1635.726 1448.225, 1596.520 1524.730, 1576.416 1613.500 C 1572.999 1628.584, 1567.566 1658.908, 1568.174 1659.497 C 1568.664 1659.972, 1639.541 1642.046, 1663 1635.513 C 1765.054 1607.096, 1846.725 1575.654, 1885.281 1549.940 C 1899.207 1540.652, 1901.930 1538.273, 1900 1537.077 C 1899.175 1536.566, 1851.990 1505.515, 1795.144 1468.074 C 1738.299 1430.633, 1691.408 1400, 1690.943 1400 C 1690.479 1400, 1686.573 1403.127, 1682.264 1406.948" stroke="none" fill="#f06868" fill-rule="evenodd"/><path d="M 334 65.668 C 310.104 68.041, 284.888 73.407, 267 79.928 C 252.341 85.272, 233.146 95.486, 221.907 103.924 C 202.490 118.504, 191.111 133.467, 184.969 152.500 C 183.099 158.294, 182.629 162.444, 182.245 176.587 C 181.576 201.195, 184.259 222.541, 189.651 235.500 C 191.024 238.800, 192.227 242.083, 192.324 242.796 C 192.427 243.553, 187.204 246.521, 179.760 249.935 C 117.891 278.311, 73.426 320.863, 58.021 366.437 C 52.641 382.354, 51.514 389.845, 51.546 409.500 C 51.584 433.256, 54.140 446.930, 61.919 465 C 75.515 496.584, 103.451 517.585, 143.312 526.186 C 158.149 529.387, 184.176 529.375, 198.939 526.159 C 245.635 515.987, 290.862 488.265, 310.054 458.051 C 312.499 454.201, 314.886 451.040, 315.357 451.026 C 315.828 451.012, 404.124 507.025, 511.570 575.500 C 619.016 643.975, 707.195 700, 707.522 700 C 707.850 700, 707.912 699.663, 707.660 699.250 C 706.853 697.931, 701.138 663.130, 698.585 644 C 691.340 589.700, 689.502 535.326, 693.599 496.500 L 694.232 490.500 551.866 393.106 C 473.565 339.540, 409.087 295.342, 408.582 294.888 C 408.055 294.415, 411.049 290.533, 415.604 285.782 C 434.758 265.807, 449.735 241.547, 457.787 217.454 C 463.222 201.195, 464.477 193.141, 464.405 175 C 464.347 160.469, 464.025 157.329, 461.711 148.687 C 456.408 128.883, 447.285 111.909, 434.713 98.450 C 418.015 80.575, 399.040 70.447, 374.916 66.535 C 366.376 65.150, 343.991 64.675, 334 65.668 M 2173.480 135.073 C 2152.261 137.136, 2120.069 149.228, 2101.357 162.164 C 2058.785 191.594, 2046.715 242.950, 2067.906 304.500 C 2070.557 312.200, 2073.773 320.852, 2075.052 323.728 C 2076.331 326.603, 2077.180 329.109, 2076.939 329.297 C 2076.698 329.485, 2006.075 374.121, 1920 428.488 C 1833.925 482.854, 1761.672 528.574, 1759.438 530.087 L 1755.376 532.837 1754.108 545.169 C 1749.899 586.090, 1739.137 640.196, 1728.608 673.374 L 1725.175 684.192 1728.479 689.846 C 1733.237 697.989, 1736.939 707.249, 1739.374 717.097 L 1741.500 725.693 1761.500 711.301 C 1877.963 627.490, 2015.199 551.657, 2137.500 503.531 C 2155.545 496.431, 2179.537 487.659, 2186.620 485.572 C 2188.392 485.050, 2190.029 486.553, 2196.595 494.724 C 2214.394 516.876, 2232.285 534.390, 2248.803 545.831 C 2269.283 560.018, 2283.884 563.579, 2305.195 559.585 C 2369.165 547.599, 2410.468 489.163, 2407.719 414.535 C 2407.077 397.121, 2404.309 384.448, 2398.579 372.696 C 2385.935 346.761, 2360.382 330.009, 2321.380 322.083 C 2315.946 320.979, 2302.674 318.942, 2291.888 317.557 C 2267.906 314.478, 2265.093 313.653, 2262.699 309 C 2260.326 304.389, 2260.966 299.489, 2265.996 283.754 C 2278.273 245.354, 2278.548 223.540, 2267.093 196.970 C 2259.522 179.408, 2243.829 160.007, 2229.191 150.111 C 2211.817 138.365, 2192.698 133.204, 2173.480 135.073 M 1156 155.128 C 998.472 169.317, 882.691 225.246, 809.215 322.645 C 762.595 384.443, 735.312 461.996, 729.921 548.045 C 726.934 595.709, 734.233 649.837, 747.039 675 C 752.292 685.320, 751.918 685.240, 758.208 677.393 C 771.271 661.096, 784.197 639.287, 791.909 620.531 C 801.937 596.140, 805.559 578.367, 804.724 557.650 C 803.908 537.435, 798.959 523.157, 787.571 508.165 C 782.255 501.165, 782 500.557, 782 494.875 C 782 481.707, 789.653 475.806, 797.087 483.241 C 812.876 499.030, 827.503 523.753, 832.151 542.507 C 835.386 555.561, 835.195 573.797, 831.682 587.201 C 826.818 605.763, 820.659 618.230, 793.990 663.500 C 776.757 692.754, 770.167 710.535, 769.265 730.220 C 768.399 749.118, 772.135 762.264, 783.102 778.910 C 793.910 795.318, 809.751 810.487, 845 838.189 C 874.528 861.395, 884.906 871.585, 890.128 882.500 C 894.327 891.277, 894.158 898.633, 889.555 907.464 C 884.923 916.350, 881.778 920.250, 866.941 935.500 C 859.985 942.650, 853.740 949.554, 853.062 950.843 C 851.013 954.740, 852.545 957.911, 857.543 960.122 C 871.730 966.397, 917.522 968.999, 934.500 964.493 C 937.800 963.618, 943.328 961.348, 946.784 959.451 C 955.355 954.745, 959.710 954.766, 963.896 959.535 C 969.545 965.968, 967.651 970.699, 955.154 981.369 C 942.927 991.808, 937.983 999.003, 936.450 1008.584 C 933.741 1025.526, 948.845 1032.398, 997 1036.134 C 1018.085 1037.769, 1292.496 1038.439, 1380 1037.069 C 1467.498 1035.699, 1498.365 1034.213, 1528.182 1029.937 C 1559.351 1025.467, 1573.809 1018.290, 1580.431 1004 C 1584.834 994.500, 1583.345 988.889, 1574.724 982.499 C 1571.851 980.369, 1567.634 977.248, 1565.354 975.563 C 1557.295 969.610, 1553.627 960.280, 1557.613 955.875 C 1560.813 952.339, 1564.019 951.287, 1578.500 949.021 C 1608.883 944.268, 1620.272 936.827, 1624.448 919 C 1627.234 907.105, 1626.063 901.545, 1618.865 892.495 C 1605.468 875.652, 1602.681 868.887, 1602.594 853 C 1602.548 844.568, 1602.845 842.922, 1605.236 838.353 C 1610.919 827.494, 1620.125 820.224, 1650 803.005 C 1682.833 784.080, 1694.849 774.154, 1701.697 760.299 C 1704.798 754.024, 1705.430 751.612, 1705.785 744.688 C 1706.750 725.880, 1700.034 712.252, 1668.495 669.022 C 1640.631 630.828, 1625.489 604.767, 1618.081 582.249 C 1604.335 540.467, 1608.378 499.664, 1630.537 456.541 C 1634.917 448.016, 1636.383 446.073, 1640.247 443.668 C 1650.190 437.482, 1661.035 439.393, 1660.977 447.321 C 1660.953 450.504, 1659.768 452.873, 1650.572 468.115 C 1640.525 484.768, 1633.961 504.900, 1631.877 525.458 C 1628.618 557.606, 1640.564 596.313, 1662.944 626.117 C 1671.652 637.715, 1684.601 650.611, 1688.528 651.596 C 1691.889 652.440, 1692.884 651.041, 1697.839 638.500 C 1715.410 594.032, 1723.081 523.931, 1716.496 468 C 1710.483 416.929, 1693.494 367.501, 1667.712 326.064 C 1663.392 319.121, 1649.562 299.470, 1645.587 294.628 L 1643.230 291.756 1631.865 303.224 C 1618.460 316.750, 1604.747 327.776, 1585.500 340.504 C 1490.040 403.627, 1342.067 445.522, 1156.500 461.964 C 1127.889 464.500, 1090.850 467, 1081.907 467 C 1075.339 467, 1075.145 466.927, 1074.636 464.250 C 1072.337 452.152, 1073.314 416.197, 1076.579 392.710 C 1082.520 349.986, 1098.039 298.740, 1119.495 251 C 1131.565 224.144, 1152.097 185.490, 1166.107 163.250 L 1171.934 154 1168.717 154.136 C 1166.948 154.211, 1161.225 154.657, 1156 155.128 M 1432.500 580.623 C 1397.237 585.972, 1371.617 598.054, 1348.326 620.321 C 1335.387 632.690, 1327.246 643.844, 1318.998 660.500 C 1307.480 683.762, 1303.301 703.273, 1304.326 729 C 1305.272 752.761, 1309.967 770.356, 1321.168 792.117 C 1342.017 832.624, 1380.990 863.084, 1424 872.486 C 1434.170 874.709, 1458.237 875.556, 1469.319 874.081 C 1530.773 865.901, 1581.968 817.579, 1595.482 755 C 1597.931 743.664, 1598.531 718.687, 1596.649 706.500 C 1590.412 666.117, 1566.762 629.552, 1531.547 605.844 C 1514.841 594.596, 1497.135 586.996, 1478.199 582.945 C 1468.753 580.924, 1440.110 579.469, 1432.500 580.623 M 1001 584.443 C 944.579 592.591, 902.338 626.244, 885.474 676.483 C 876.934 701.923, 874.863 733.753, 880.078 759.409 C 886.041 788.741, 898.523 811.697, 920.413 833.587 C 942.432 855.606, 966.096 868.447, 997 875.147 C 1011.126 878.209, 1043.968 878.453, 1059.500 875.610 C 1109.645 866.434, 1145.724 838.448, 1162.926 795.383 C 1171.578 773.723, 1174.454 755.890, 1173.712 728.511 C 1172.999 702.227, 1169.984 689.236, 1159.498 667.271 C 1151.917 651.388, 1143.322 639.294, 1130.514 626.486 C 1109.833 605.805, 1086.981 593.152, 1058 586.336 C 1044.725 583.213, 1016.099 582.263, 1001 584.443 M 1245.946 839.711 C 1235.037 845.143, 1216.969 865.147, 1204.844 885.218 C 1190.347 909.214, 1182.698 930.839, 1182.637 948 C 1182.597 958.941, 1184.513 964.001, 1190.390 968.484 C 1195.039 972.030, 1204.002 973.644, 1209.993 972.014 C 1217.009 970.106, 1226.515 959.596, 1238 941.048 C 1248.540 924.027, 1254.477 916.727, 1259.086 915.120 C 1261.869 914.150, 1262.409 914.325, 1264.838 916.984 C 1266.312 918.598, 1270.580 925.547, 1274.321 932.425 C 1291.286 963.618, 1300.026 973, 1312.118 973 C 1317.033 973, 1318.458 972.538, 1322.172 969.736 C 1328.144 965.231, 1331 959.250, 1331 951.246 C 1331 938.109, 1326.167 921.423, 1316.591 901.500 C 1302.014 871.173, 1283.943 848.462, 1267.740 840.105 C 1259.835 836.028, 1253.572 835.915, 1245.946 839.711 M 1585.285 1055.195 C 1585.583 1055.913, 1588.606 1063.025, 1592.004 1071 C 1605.188 1101.946, 1617.365 1143.033, 1624.515 1180.694 C 1632.242 1221.395, 1635.904 1258.446, 1636.646 1303.431 L 1637.173 1335.362 1655.836 1345.776 C 1745.913 1396.035, 1857.103 1467.813, 1948.781 1534.884 L 1970.870 1551.045 1968.484 1556.439 C 1964.068 1566.426, 1954.128 1596.800, 1950.561 1611.207 C 1945.179 1632.948, 1943.832 1641.988, 1943.267 1660.143 C 1942.433 1686.962, 1945.494 1709.642, 1952.980 1732.133 C 1959.715 1752.364, 1969.020 1768.020, 1982.058 1781.058 C 1995.850 1794.850, 2012.001 1803.996, 2032.715 1809.744 C 2041.472 1812.174, 2044.181 1812.460, 2058.500 1812.469 C 2070.172 1812.476, 2076.799 1811.989, 2083 1810.669 C 2109.292 1805.071, 2128.975 1794.158, 2147.353 1774.990 C 2178.295 1742.715, 2198.438 1688.520, 2204.018 1622.526 C 2204.621 1615.390, 2205.219 1609.447, 2205.346 1609.320 C 2205.474 1609.193, 2210.960 1609.709, 2217.539 1610.467 C 2271.336 1616.666, 2318.092 1609.505, 2350.769 1590.062 C 2382.797 1571.005, 2403.717 1539.366, 2410.648 1499.500 C 2415.968 1468.901, 2403.892 1430.872, 2381.265 1406.970 C 2368.753 1393.752, 2355.920 1385.551, 2337.688 1379.121 C 2305.510 1367.771, 2257.390 1367.591, 2222.500 1378.690 C 2198.176 1386.427, 2169.639 1403.273, 2150.399 1421.250 C 2147.014 1424.412, 2143.706 1427, 2143.048 1427 C 2142.128 1427, 1699.327 1131.172, 1603.122 1066.285 C 1593.014 1059.467, 1584.987 1054.477, 1585.285 1055.195 M 1519.500 1059.709 C 1514.550 1059.873, 1494.172 1060.396, 1474.216 1060.871 C 1454.259 1061.346, 1437.691 1061.976, 1437.396 1062.270 C 1437.102 1062.565, 1438.432 1070.162, 1440.352 1079.153 C 1444.949 1100.683, 1451.196 1135.059, 1454.635 1157.750 L 1457.401 1176 1524.201 1176 C 1579.105 1176, 1591 1175.763, 1591 1174.670 C 1591 1172.317, 1584.097 1147.921, 1579.350 1133.500 C 1572.451 1112.543, 1563.927 1091.307, 1555.565 1074.250 L 1548.089 1059 1538.295 1059.206 C 1532.908 1059.319, 1524.450 1059.545, 1519.500 1059.709 M 1356 1063.030 C 1334.825 1063.407, 1309.513 1063.779, 1299.750 1063.858 L 1282 1064 1282 1120 L 1282 1176 1354.019 1176 L 1426.038 1176 1425.543 1173.750 C 1425.270 1172.513, 1424.342 1166.100, 1423.480 1159.500 C 1420.078 1133.444, 1413.010 1094.520, 1407.228 1070 L 1405.460 1062.500 1399.980 1062.422 C 1396.966 1062.379, 1377.175 1062.653, 1356 1063.030 M 966.281 1090.094 C 961.242 1105.167, 955.320 1123.800, 953.122 1131.500 C 948.837 1146.512, 942 1173.221, 942 1174.949 C 942 1175.673, 962.473 1176, 1007.787 1176 L 1073.574 1176 1076.842 1155.250 C 1078.639 1143.838, 1083.065 1119.875, 1086.679 1102 C 1090.292 1084.125, 1093.469 1068.263, 1093.738 1066.750 L 1094.227 1064 1064.776 1064 C 1048.579 1064, 1021.852 1063.705, 1005.385 1063.344 L 975.444 1062.687 966.281 1090.094 M 1124.948 1068.194 C 1120.193 1085.851, 1112.153 1127.640, 1108.054 1156 C 1106.901 1163.975, 1105.754 1171.737, 1105.504 1173.250 L 1105.050 1176 1179.025 1176 L 1253 1176 1253 1119.986 L 1253 1063.972 1189.479 1064.206 L 1125.958 1064.441 1124.948 1068.194 M 897.500 1098.250 C 683.826 1221.791, 525.946 1316.294, 437.169 1373.794 L 414.838 1388.257 410.669 1384.244 C 383.927 1358.501, 339.189 1334.404, 304.369 1326.988 C 291.626 1324.274, 267.300 1323.298, 252.995 1324.927 C 168.949 1334.497, 122.966 1387.241, 122.598 1474.500 C 122.521 1492.802, 123.619 1501.355, 127.733 1514.500 C 139.774 1552.975, 172.373 1578.493, 222.795 1588.915 C 242.987 1593.088, 258.458 1594.267, 286.763 1593.787 C 310.358 1593.388, 312.976 1593.503, 312.532 1594.921 C 309.587 1604.342, 306.019 1632.903, 305.338 1652.500 C 304.444 1678.278, 307.451 1696.415, 315.847 1715.891 C 322.030 1730.232, 328.324 1739.461, 339.451 1750.500 C 353.560 1764.498, 367.425 1771.912, 388.500 1776.729 C 399.844 1779.323, 427.563 1779.045, 441.755 1776.197 C 474.393 1769.646, 499.719 1756.362, 522.096 1734.058 C 542.960 1713.261, 554.540 1692.182, 561.678 1662 C 564.767 1648.943, 565.906 1621.446, 564.089 1603.849 C 559.846 1562.781, 543.433 1521.025, 521.966 1496.689 C 519.345 1493.717, 518.078 1491.522, 518.654 1490.946 C 519.166 1490.434, 602.816 1440.027, 704.543 1378.930 C 806.269 1317.834, 889.796 1267.543, 890.158 1267.173 C 890.519 1266.803, 891.791 1258.400, 892.985 1248.500 C 901.339 1179.200, 916.906 1114.882, 933.081 1082.839 C 934.759 1079.516, 935.989 1076.681, 935.815 1076.538 C 935.642 1076.396, 918.400 1086.166, 897.500 1098.250 M 935.618 1205.750 C 934.812 1208.477, 931.272 1233.251, 929.867 1246 C 929.170 1252.325, 928.595 1267.850, 928.591 1280.500 C 928.583 1302.111, 929.291 1310.949, 932.072 1323.904 L 933.232 1329.308 951.866 1328.657 C 962.115 1328.299, 991.016 1328.004, 1016.090 1328.003 L 1061.681 1328 1062.351 1303.750 C 1063.231 1271.923, 1067.220 1218.572, 1069.604 1206.750 L 1070.159 1204 1003.147 1204 C 940.189 1204, 936.103 1204.106, 935.618 1205.750 M 1101.593 1206.750 C 1099.986 1214.551, 1094.848 1281.252, 1093.377 1313.415 L 1092.694 1328.329 1122.097 1327.666 C 1138.269 1327.302, 1174.338 1327.003, 1202.250 1327.002 L 1253 1327 1253 1265.500 L 1253 1204 1177.579 1204 L 1102.159 1204 1101.593 1206.750 M 1282 1265.658 L 1282 1327.316 1300.160 1326.658 C 1310.148 1326.296, 1345.092 1326, 1377.813 1326 L 1437.306 1326 1436.615 1308.750 C 1435.493 1280.738, 1431.728 1228.862, 1429.394 1209.250 L 1428.770 1204 1355.385 1204 L 1282 1204 1282 1265.658 M 1461.386 1208.243 C 1463.960 1226.058, 1466.829 1267.955, 1467.642 1299.612 L 1468.307 1325.500 1535.900 1325.170 C 1573.077 1324.988, 1603.720 1324.613, 1603.997 1324.337 C 1604.274 1324.060, 1604.498 1308.909, 1604.495 1290.667 C 1604.491 1256.731, 1603.418 1241.466, 1599.179 1215 L 1597.497 1204.500 1529.134 1204.243 L 1460.771 1203.986 1461.386 1208.243 M 1115.833 1356.978 C 1017.566 1357.265, 936.827 1357.839, 936.413 1358.254 C 935.483 1359.184, 940.527 1372.638, 947.642 1388.207 C 976.377 1451.084, 1023.792 1507.891, 1077.031 1543.226 C 1122.299 1573.271, 1173.693 1590.892, 1231.242 1596.099 C 1250.029 1597.799, 1292.952 1596.744, 1309.531 1594.175 C 1360.844 1586.225, 1406.022 1568.083, 1449 1538.171 C 1504.660 1499.431, 1557.553 1436.831, 1590.880 1370.250 L 1598.013 1356 1446.257 1356.228 C 1362.791 1356.353, 1214.100 1356.691, 1115.833 1356.978" stroke="none" fill="#ffffff" fill-rule="evenodd"/><path d="M 1534 1.043 C 1436.148 7.161, 1356.791 25.282, 1291.500 56.418 C 1257.183 72.782, 1225.896 94.443, 1206.337 115.376 L 1198.500 123.764 1166.500 124.334 C 1115.200 125.247, 1079.475 129.668, 1035 140.605 C 913.881 170.391, 814.788 243.186, 750.330 349.729 C 733.002 378.371, 717.507 411.284, 708.068 439.498 C 705.387 447.510, 702.979 454.163, 702.717 454.282 C 702.162 454.536, 454.188 285.114, 453.511 284.017 C 453.260 283.612, 455.513 280.564, 458.516 277.245 C 479.101 254.499, 493.122 227.282, 498.650 199.346 C 501.289 186.008, 501.062 159.749, 498.193 146.396 C 495.233 132.622, 491.691 122.330, 485.898 110.674 C 478.657 96.104, 471.867 86.822, 459.025 73.938 C 437.643 52.485, 415.339 40.575, 384 33.875 C 370.213 30.927, 340.604 30.696, 319.500 33.372 C 278.541 38.565, 249.569 46.724, 223.207 60.492 C 162.706 92.087, 138.100 152.809, 156.489 225.135 C 157.131 227.659, 156.715 227.982, 146.607 232.810 C 116.123 247.372, 85.900 268.890, 64 291.624 C 37.120 319.528, 22.496 347.548, 17.910 379.934 C 16.092 392.777, 17.303 417.586, 20.502 433 C 32.408 490.376, 65.610 534.998, 110.053 553.352 C 121.810 558.207, 131.498 560.761, 144.801 562.512 C 201.485 569.974, 264.107 546.235, 310.006 499.883 L 319.528 490.266 527.514 624.445 L 735.500 758.623 739.385 765.562 C 753.850 791.393, 768.280 813.548, 777.892 824.679 C 783.876 831.609, 795.249 840.473, 813.851 852.705 C 823.558 859.089, 835.996 867.279, 841.491 870.906 C 853.622 878.913, 861 885.736, 861 888.948 C 861 892.998, 857.110 897.784, 845.287 908.279 C 838.954 913.901, 832.749 919.288, 831.498 920.252 C 828.028 922.925, 818.536 934.944, 815.903 940 C 812.394 946.738, 812.560 956.585, 816.311 964.225 C 821.432 974.653, 834.525 985.935, 850.866 994 C 865.200 1001.074, 867.348 1001.500, 888.722 1001.500 L 907.944 1001.500 907.222 1005.500 C 906.825 1007.700, 906.535 1014.450, 906.578 1020.500 C 906.665 1032.842, 908.861 1040.494, 913.994 1046.341 L 916.784 1049.518 851.642 1090.198 C 634.396 1225.868, 488.246 1313.688, 433.164 1341.657 L 416.828 1349.952 409.664 1343.890 C 378.717 1317.705, 335.898 1300.748, 288.605 1295.949 C 273.361 1294.402, 237.969 1295.235, 225 1297.446 C 195.292 1302.510, 170.984 1312.036, 150 1326.839 C 142.135 1332.387, 125.560 1348.260, 119.027 1356.500 C 85.418 1398.892, 72.495 1454.225, 84.563 1504.064 C 95.062 1547.423, 128.807 1585.773, 173.818 1605.498 C 202.148 1617.913, 236.219 1624.996, 267.616 1624.999 L 276.731 1625 274.876 1631.692 C 271.832 1642.668, 270.598 1662.922, 271.940 1679.875 C 274.388 1710.797, 282.161 1737.232, 294.477 1756.522 C 310.006 1780.843, 347.488 1801.906, 388.890 1809.577 C 400.847 1811.792, 431.478 1812.585, 444.838 1811.025 C 467.077 1808.429, 490.790 1800.640, 508.549 1790.099 C 549.197 1765.971, 578.063 1731.664, 590.951 1692.164 C 607.707 1640.810, 599.446 1576.561, 567.412 1509.104 C 564.435 1502.836, 562.002 1497.211, 562.005 1496.604 C 562.017 1493.756, 642.027 1446.089, 823 1341.112 L 895.500 1299.056 896.676 1313.596 C 901.986 1379.258, 926.357 1439.334, 969.657 1493.500 C 980.754 1507.381, 1005.480 1532.694, 1018.349 1543.347 C 1096.756 1608.250, 1192.828 1636.380, 1298.710 1625.437 C 1373.150 1617.745, 1439.120 1590.448, 1499 1542.562 C 1514.131 1530.462, 1546.151 1498.781, 1559.199 1483 C 1583.426 1453.697, 1602.879 1424.036, 1618.877 1392 C 1623.134 1383.475, 1627.491 1374.373, 1628.559 1371.773 L 1630.500 1367.046 1643.700 1374.807 C 1650.961 1379.075, 1657.204 1382.871, 1657.574 1383.241 C 1657.945 1383.611, 1653.747 1389.896, 1648.247 1397.207 C 1626.799 1425.717, 1611.270 1450.805, 1595.145 1483 C 1570.020 1533.162, 1553.820 1580.811, 1543.129 1636 C 1538.814 1658.276, 1534.039 1699.004, 1535.743 1698.997 C 1537.747 1698.989, 1582.437 1688.198, 1606 1682.033 C 1704.792 1656.186, 1793.140 1626.646, 1859.500 1597.274 C 1876.752 1589.638, 1910.511 1573.043, 1921.560 1566.766 L 1927.620 1563.323 1922.322 1576.542 C 1915.555 1593.423, 1910.777 1610.067, 1907.980 1626.500 C 1906.049 1637.847, 1905.838 1641.852, 1906.314 1658 C 1908.390 1728.435, 1934.287 1785.495, 1978.328 1816.678 C 1995.204 1828.627, 2017.372 1838.289, 2038 1842.688 C 2051.123 1845.486, 2083.748 1845.185, 2098 1842.135 C 2139.148 1833.329, 2170.034 1812.061, 2194.226 1775.872 C 2215.169 1744.546, 2230.118 1697.734, 2234.184 1650.750 L 2235.374 1637 2255.443 1637 C 2293.917 1637, 2323.394 1631.283, 2350.473 1618.568 C 2408.279 1591.427, 2440.756 1536.193, 2438.712 1468.500 C 2438.186 1451.080, 2436.960 1444.853, 2431.501 1431.879 C 2423.399 1412.625, 2404.579 1391.125, 2383.500 1377.045 C 2362.408 1362.955, 2334.810 1351.241, 2309.333 1345.562 C 2292.184 1341.740, 2280.484 1340.661, 2263.134 1341.300 C 2245.780 1341.939, 2233.989 1344.205, 2215.224 1350.510 C 2201.334 1355.176, 2173.347 1369.013, 2160.054 1377.786 L 2149.607 1384.680 2132.554 1373.644 C 2123.174 1367.574, 2115.383 1362.542, 2115.241 1362.462 C 2115.099 1362.381, 2119.285 1349.532, 2124.544 1333.908 C 2146.629 1268.297, 2160 1219.139, 2160 1203.560 C 2160 1197.381, 2158.203 1195.513, 2152.502 1195.761 C 2139.190 1196.340, 2089.433 1217.148, 2024.750 1249.187 C 2010.588 1256.202, 1999 1261.660, 1999 1261.316 C 1999 1260.972, 2000.615 1255.697, 2002.590 1249.595 C 2011.506 1222.040, 2017.203 1194.273, 2017.382 1177.500 C 2017.517 1164.781, 2016.304 1160.275, 2011.700 1156.401 C 2008.608 1153.799, 2008.297 1153.750, 1998.517 1154.315 C 1992.877 1154.641, 1984.131 1156.022, 1978.500 1157.475 C 1955.174 1163.493, 1909.615 1180.265, 1871.761 1196.768 L 1858.022 1202.758 1726.261 1114.308 C 1653.792 1065.660, 1594.068 1025.435, 1593.541 1024.919 C 1592.934 1024.326, 1593.485 1023.357, 1595.041 1022.282 C 1601.360 1017.915, 1608.241 1010.257, 1611.143 1004.361 C 1614.041 998.475, 1614.223 997.472, 1613.814 989.672 C 1613.495 983.608, 1612.806 980.336, 1611.313 977.805 L 1609.251 974.311 1612.376 973.181 C 1619.161 970.727, 1631.888 961.861, 1638.077 955.276 C 1649.387 943.241, 1653.102 933.529, 1653.103 916 C 1653.103 902.569, 1650.315 891.345, 1641.570 869.572 C 1638.020 860.732, 1634.847 852.375, 1634.518 851 C 1633.963 848.674, 1634.702 848.084, 1645.167 842.500 C 1680.612 823.589, 1709.415 803.220, 1719.865 789.675 C 1722.199 786.650, 1728.921 779.950, 1734.804 774.786 C 1808.808 709.822, 1926.411 638.180, 2068.443 571.537 C 2104.491 554.623, 2149.604 534.634, 2168.667 527.129 L 2173.835 525.094 2176.648 528.797 C 2181.310 534.933, 2194.842 548.646, 2201.885 554.371 C 2232.957 579.632, 2264.991 590.100, 2301.881 587.048 C 2342.232 583.709, 2370.611 571.609, 2394.165 547.700 C 2417.006 524.517, 2433.011 487.473, 2439.403 443 C 2444.324 408.767, 2443.718 388.794, 2437.189 370 C 2423.590 330.852, 2383.453 301.943, 2325.500 289.554 C 2319.450 288.261, 2312.363 286.904, 2309.750 286.540 C 2307.137 286.176, 2305 285.759, 2305 285.615 C 2305 285.470, 2305.728 280.661, 2306.617 274.926 C 2308.801 260.845, 2308.788 229.698, 2306.591 213 C 2303.480 189.358, 2299.529 176.623, 2291.700 165 C 2273.833 138.476, 2243.527 115.549, 2214 106.220 C 2200.072 101.819, 2191.180 100.525, 2175.500 100.615 C 2143.912 100.797, 2114.929 111.733, 2083.150 135.460 C 2049.663 160.464, 2029.778 189.485, 2022.272 224.308 C 2019.629 236.567, 2019.898 262.119, 2022.811 275.648 C 2025.523 288.243, 2030.908 303.872, 2036.076 314.151 L 2040.007 321.970 2036.254 324.339 C 2034.189 325.641, 1973.325 363.597, 1901 408.684 C 1828.675 453.771, 1765.895 492.923, 1761.490 495.687 L 1753.479 500.713 1753.468 484.107 C 1753.455 466.195, 1752.312 455.843, 1748.406 438.273 C 1738.123 392.019, 1709.316 332.264, 1672.341 280.494 L 1664.182 269.070 1673.410 257.271 C 1744.221 166.725, 1787 94.046, 1787 64.287 C 1787 59.398, 1786.769 58.859, 1784.250 57.854 C 1782.240 57.053, 1778.871 57.074, 1771.732 57.932 C 1751.394 60.376, 1720.048 69.401, 1639.432 96.025 C 1568.086 119.586, 1549.496 124.766, 1548.321 121.409 C 1547.661 119.524, 1555.482 108.984, 1567.545 95.500 C 1609.860 48.203, 1621.279 34.072, 1628.041 20.634 C 1632.699 11.380, 1633.298 5.486, 1629.896 2.405 C 1627.904 0.602, 1625.621 0.494, 1587.146 0.381 C 1564.791 0.315, 1540.875 0.613, 1534 1.043 M 1500 31.691 C 1412.753 36.791, 1335.705 61.176, 1276.637 102.382 C 1252.392 119.296, 1224.183 145.539, 1206.642 167.500 C 1160.781 224.916, 1131.220 297.318, 1120.083 379.500 C 1117.887 395.708, 1116 417.814, 1116 427.335 L 1116 433.270 1129.750 432.592 C 1278.111 425.282, 1394.552 398.918, 1494.500 350.008 C 1600.496 298.138, 1680.893 219.002, 1717.543 130.464 C 1721.452 121.020, 1727.236 103.902, 1726.699 103.365 C 1726.512 103.179, 1718.291 105.734, 1708.430 109.043 C 1617.555 139.536, 1543.132 156.812, 1518.862 153.047 C 1505.578 150.985, 1503.488 148.466, 1504.304 135.500 C 1505.783 112.012, 1523.986 79.662, 1560.834 35.038 L 1564.168 31 1534.834 31.185 C 1518.700 31.287, 1503.025 31.515, 1500 31.691 M 322.760 66.469 C 266.200 73.569, 218.222 97.449, 196.033 129.547 C 184.756 145.859, 182 156.050, 182 181.436 C 182 207.276, 184.816 226.365, 190.440 238.649 L 192.799 243.803 183.150 248.001 C 168.777 254.254, 151.222 264.007, 135.500 274.474 C 90.982 304.112, 63.960 338.725, 53.897 379 C 51.768 387.519, 51.527 390.668, 51.556 409.500 C 51.583 427.491, 51.912 431.995, 53.850 440.934 C 58.965 464.523, 69.555 484.128, 84.687 498.021 C 114.973 525.830, 162.654 535.852, 208.680 524.085 C 250.523 513.387, 290.828 487.518, 309.671 459.266 L 315.163 451.033 317.831 452.479 C 319.299 453.274, 407.575 509.463, 514 577.342 C 620.425 645.221, 707.626 700.649, 707.781 700.515 C 707.935 700.381, 706.911 694.042, 705.504 686.427 C 699.823 655.667, 695.181 617.879, 692.920 584 C 691.690 565.565, 692.281 507.533, 693.809 496.628 L 694.632 490.755 688.908 486.628 C 685.760 484.357, 621.340 440.200, 545.753 388.500 L 408.322 294.500 414.816 287.500 C 438.474 261.998, 453.930 235.233, 461.202 207.171 C 465.352 191.153, 466.216 168.407, 463.220 154 C 454.346 111.318, 424.835 78.793, 385.500 68.342 C 376.438 65.934, 373.531 65.658, 354.500 65.403 C 341.155 65.224, 329.585 65.612, 322.760 66.469 M 2169.863 135.005 C 2161.436 136.343, 2149.513 139.541, 2137.968 143.559 C 2067.328 168.148, 2041.743 224.899, 2066.530 302.024 C 2068.559 308.336, 2071.753 316.844, 2073.628 320.931 C 2075.503 325.019, 2076.691 328.694, 2076.269 329.098 C 2075.846 329.503, 2003.500 375.344, 1915.500 430.969 L 1755.500 532.104 1754.268 542.302 C 1750.993 569.411, 1747.500 591.641, 1743.001 614 C 1738.483 636.452, 1730.488 668.019, 1726.548 678.956 L 1724.943 683.413 1730.481 694.456 C 1733.948 701.370, 1736.956 709.214, 1738.523 715.430 C 1739.900 720.891, 1741.150 725.483, 1741.301 725.634 C 1741.452 725.785, 1751.008 719.154, 1762.538 710.899 C 1863.244 638.794, 1974.592 574.819, 2083.500 526.493 C 2116.851 511.693, 2151.966 497.704, 2177.593 489.007 L 2188.686 485.242 2196.593 495.370 C 2207.736 509.643, 2234.421 536.037, 2246 544.238 C 2258.607 553.167, 2269.916 558.704, 2279.563 560.671 C 2286.200 562.025, 2288.874 562.092, 2296.953 561.107 C 2352.569 554.327, 2393.109 514.496, 2405.224 454.728 C 2407.215 444.904, 2407.493 440.624, 2407.441 420.500 C 2407.389 399.975, 2407.145 396.639, 2405.175 389.500 C 2396.598 358.410, 2375.804 338.011, 2341.519 327.050 C 2328.172 322.784, 2316.352 320.437, 2293 317.419 C 2269.476 314.379, 2266.695 313.699, 2264.054 310.341 C 2260.824 306.235, 2261.402 300.036, 2266.527 283.822 C 2275.095 256.715, 2277.563 237.153, 2274.576 220.029 C 2269.082 188.530, 2245.785 157.054, 2217.307 142.651 C 2204.484 136.165, 2183.675 132.812, 2169.863 135.005 M 1147.500 155.588 C 1046.890 165.356, 961.016 194.025, 895 239.883 C 868.482 258.305, 835.430 288.930, 816.629 312.500 C 769.407 371.702, 741.333 441.640, 731.326 525 C 729.133 543.271, 728.835 593.855, 730.822 610.500 C 733.554 633.379, 737.893 653.312, 743.124 667.010 C 746.147 674.926, 751.310 684, 752.792 684 C 753.251 684, 756.591 680.063, 760.212 675.250 C 798.718 624.081, 813.800 571.157, 800.886 532.521 C 797.493 522.370, 793.982 515.793, 787.499 507.445 C 785.043 504.281, 782.750 500.184, 782.404 498.340 C 780.795 489.763, 785.271 480, 790.812 480 C 797.220 480, 819.163 508.826, 826.601 527.016 C 831.646 539.353, 833.151 546.060, 833.721 558.761 C 834.947 586.094, 827.993 605.653, 800.923 651 C 775.624 693.381, 768.777 711.114, 768.681 734.500 C 768.608 752.505, 774.043 767.436, 787.075 785.028 C 798.224 800.077, 813.403 813.950, 849.471 842.055 C 871.859 859.499, 884.596 872.288, 889.483 882.227 C 892.925 889.228, 893.232 890.504, 892.753 895.790 C 891.800 906.293, 884.042 918.179, 867.495 934.485 C 855.487 946.319, 852 950.771, 852 954.272 C 852 962.221, 870.465 966.301, 907 966.424 C 932.078 966.509, 935.657 965.894, 947.889 959.403 C 954.946 955.658, 958.411 955.199, 961.783 957.561 C 965.032 959.836, 967.284 964.732, 966.507 967.828 C 966.129 969.334, 960.438 975.746, 953.069 982.970 C 942.039 993.783, 939.994 996.293, 938.144 1001.288 C 935.675 1007.953, 935.381 1014.910, 937.405 1018.800 C 943.486 1030.488, 962.196 1034.806, 1016.701 1037.102 C 1049.812 1038.496, 1416.428 1037.665, 1451 1036.118 C 1543.807 1031.963, 1569.935 1025.826, 1579.924 1005.835 C 1583.533 998.614, 1583.894 992.978, 1581.046 988.307 C 1579.975 986.551, 1575.497 982.591, 1571.095 979.506 C 1561.752 972.959, 1558.501 969.405, 1556.867 963.952 C 1554.288 955.343, 1559.118 952.234, 1580.037 949.038 C 1599.790 946.020, 1607.683 943.099, 1615.464 935.926 C 1621.363 930.489, 1625.058 921.909, 1625.731 912.087 C 1626.393 902.433, 1624.807 898.573, 1615.813 887.954 C 1605.856 876.198, 1602.531 866.529, 1603.165 851.184 C 1603.621 840.142, 1606.086 835.020, 1614.920 826.756 C 1622.156 819.987, 1631.320 813.873, 1650.500 803.018 C 1695.734 777.417, 1709.488 760.631, 1705.913 735.391 C 1703.726 719.943, 1695.987 706.141, 1668.209 668.141 C 1633.478 620.630, 1618.467 591.250, 1612.446 559 C 1610.063 546.234, 1610.017 522.868, 1612.350 510.045 C 1616.189 488.946, 1627.390 459.257, 1635.667 448.241 C 1642.689 438.895, 1661 437.714, 1661 446.608 C 1661 449.759, 1659.362 453.290, 1654.090 461.500 C 1621.001 513.033, 1623.796 571.902, 1661.872 625.408 C 1672.190 639.908, 1687.919 654.404, 1691.160 652.401 C 1694.899 650.090, 1704.374 623.349, 1709.372 601 C 1716.577 568.786, 1718.498 550.038, 1718.493 512 C 1718.488 473.183, 1716.199 452.745, 1708.360 421.500 C 1696.961 376.064, 1674.045 329.416, 1646.378 295.326 L 1642.990 291.151 1632.245 302.190 C 1580.048 355.814, 1478.994 402.727, 1354 431.362 C 1274.542 449.565, 1183.841 461.572, 1087.847 466.597 L 1075.195 467.260 1074.465 459.469 C 1073.245 446.450, 1074.635 408.033, 1076.873 392.944 C 1085.780 332.876, 1108.217 268.740, 1142.972 204 C 1149.962 190.979, 1165.401 164.448, 1170.759 156.250 C 1172.224 154.010, 1172.206 154.001, 1166.865 154.114 C 1163.914 154.177, 1155.200 154.840, 1147.500 155.588 M 1436 580.594 C 1425.270 581.872, 1412.305 584.629, 1403.431 587.519 C 1363.698 600.459, 1330.685 630.975, 1315.077 669.189 C 1299.188 708.089, 1300.926 750.835, 1319.957 789.205 C 1341.426 832.490, 1381.260 863.612, 1426.818 872.691 C 1439.976 875.314, 1465.344 875.067, 1478.688 872.186 C 1498.839 867.837, 1518.827 859.043, 1535.230 847.312 C 1545.960 839.638, 1561.991 823.514, 1569.678 812.665 C 1581.721 795.669, 1591.048 774.394, 1595.037 754.820 C 1610.909 676.932, 1557.289 599.479, 1476.092 583.009 C 1466.087 580.980, 1443.955 579.647, 1436 580.594 M 1006 584.040 C 939.872 592.122, 893.566 633.158, 881.039 694.781 C 870.251 747.850, 884.361 797.510, 920.458 833.514 C 952.702 865.675, 995.786 881.129, 1042.247 877.197 C 1082.610 873.782, 1111.241 861.313, 1135.500 836.586 C 1154.959 816.751, 1165.901 794.707, 1171.661 763.736 C 1174.163 750.285, 1174.172 716.809, 1171.677 704.536 C 1159.144 642.876, 1112.458 596.312, 1052.259 585.430 C 1041.743 583.529, 1016.411 582.768, 1006 584.040 M 2383.500 647.089 C 2294.292 650.710, 2211.055 682.164, 2144.323 737.470 C 2130.459 748.959, 2107.189 772.262, 2094.861 787 C 2046.275 845.083, 2011.012 918.397, 1988.425 1008.286 C 1983.962 1026.048, 1975.465 1067.059, 1974.822 1073.942 L 1974.500 1077.384 1990.623 1083.150 C 2109.715 1125.740, 2219.825 1127.990, 2316 1089.798 C 2368.832 1068.819, 2414.692 1037.585, 2459.051 992.370 C 2497.972 952.700, 2529.977 907.741, 2556.484 855.500 C 2576.683 815.694, 2593 770.581, 2593 754.544 C 2593 749.367, 2592.795 748.871, 2590.250 747.885 C 2578.438 743.309, 2497.843 767.413, 2386.052 808.956 C 2376.156 812.634, 2375.796 813.465, 2391.007 797.500 C 2447.921 737.762, 2492.366 684.021, 2497.627 668.582 C 2499.114 664.217, 2499.104 663.772, 2497.475 661.972 C 2491.859 655.767, 2456.635 648.606, 2426.078 647.458 C 2418.610 647.178, 2410.025 646.815, 2407 646.653 C 2403.975 646.491, 2393.400 646.687, 2383.500 647.089 M 2382.500 681.094 C 2361.375 682.400, 2346.389 683.989, 2331.435 686.508 C 2219.915 705.293, 2131.885 776.322, 2072.124 895.739 C 2049.037 941.871, 2030.075 997.843, 2020.543 1048 C 2019.654 1052.675, 2018.724 1057.456, 2018.476 1058.625 C 2018.063 1060.571, 2019.011 1061.008, 2029.762 1063.820 C 2094.195 1080.673, 2179.226 1085.871, 2236 1076.427 C 2333.297 1060.243, 2421.748 1000.714, 2488.482 906.500 C 2508.412 878.363, 2526.947 846.492, 2540.195 817.577 C 2546.176 804.525, 2553.089 788, 2552.569 788 C 2552.418 788, 2546.940 790.527, 2540.397 793.615 C 2479.745 822.243, 2374.295 856.591, 2334.957 860.533 C 2327.146 861.316, 2320.390 859.803, 2319.525 857.079 C 2317.934 852.066, 2322.900 834.087, 2329.485 821.023 C 2340.931 798.315, 2356.596 779.525, 2404.539 731 C 2421.656 713.675, 2437.569 697.056, 2439.902 694.069 C 2444.726 687.893, 2448.213 681.547, 2447.290 680.624 C 2446.429 679.762, 2398.402 680.111, 2382.500 681.094 M 455 710.143 C 402.284 714.976, 332.025 735.791, 276.541 763.015 C 131.857 834.005, 39.151 956.186, 9.089 1115.500 C 4.329 1140.725, 0.037 1173.648, 0.011 1185.138 L 0 1189.776 18.750 1193.389 C 153.129 1219.285, 274.202 1207.599, 381.294 1158.398 C 481.556 1112.335, 569.521 1027.953, 619.092 930.287 C 635.961 897.050, 646.023 865.569, 645.985 846.140 C 645.968 836.974, 644.617 833.810, 640.351 832.938 C 627.687 830.348, 547.045 844.315, 438.500 867.898 C 423.650 871.124, 411.370 873.649, 411.211 873.509 C 411.052 873.370, 414.848 867.685, 419.646 860.877 C 454.189 811.870, 484.272 760.874, 493.018 736.500 C 496.833 725.868, 497.642 715.227, 494.848 712.425 C 491.533 709.099, 476.052 708.213, 455 710.143 M 437 749.665 C 435.625 749.881, 427.975 750.972, 420 752.090 C 305.497 768.135, 208.502 825.413, 139.960 917.462 C 95.861 976.685, 62.803 1050.319, 45.583 1127.681 C 42.017 1143.702, 38.621 1162.955, 39.251 1163.585 C 39.885 1164.218, 64.970 1167.064, 82.828 1168.529 C 153.585 1174.331, 223.399 1169.138, 286.340 1153.391 C 404.022 1123.950, 505.740 1053.514, 570.749 956.447 C 590.715 926.636, 606.603 892.740, 608.608 875.678 C 609.534 867.800, 608.993 867.571, 591.216 868.312 C 566.994 869.322, 552.311 871.997, 497 885.474 C 437.489 899.974, 417.893 903.204, 402.457 901.057 C 380.132 897.952, 372.559 886.407, 379.487 866.038 C 384.342 851.765, 393.841 836.467, 417.808 804.324 C 444.017 769.174, 449 761.225, 449 754.568 C 449 749.527, 445.911 748.265, 437 749.665 M 1246.381 839.935 C 1226.291 850.080, 1198.780 888.921, 1187.347 923.282 C 1183.892 933.664, 1183.610 935.394, 1183.557 946.500 C 1183.490 960.559, 1184.877 964.567, 1191.273 968.799 C 1195.965 971.904, 1205.615 972.942, 1211.558 970.981 C 1217.505 969.018, 1226.491 958.875, 1236.456 942.878 C 1241.381 934.970, 1247.168 926.144, 1249.316 923.264 C 1253.238 918.003, 1258.407 914, 1261.279 914 C 1263.683 914, 1267.268 918.920, 1274.560 932.231 C 1284.036 949.526, 1289.404 957.687, 1295.345 963.829 C 1304.271 973.058, 1311.136 975.049, 1319.711 970.898 C 1325.324 968.181, 1328.650 963.729, 1330.093 957.003 C 1333.977 938.891, 1317.548 895.839, 1295.649 866.741 C 1287.554 855.986, 1273.995 843.345, 1267.232 840.248 C 1258.610 836.302, 1253.723 836.228, 1246.381 839.935 M 1587.623 1061.647 C 1605.344 1100.275, 1620.390 1153.156, 1628.409 1205 C 1633.766 1239.637, 1637.597 1292.706, 1636.845 1321.875 L 1636.500 1335.250 1655.745 1346.054 C 1728.605 1386.953, 1805.865 1435.376, 1882 1487.859 C 1919.725 1513.864, 1970 1550.262, 1970 1551.569 C 1970 1551.841, 1969.287 1553.737, 1968.415 1555.782 C 1960.256 1574.923, 1950.735 1605.774, 1946.434 1627.009 C 1942.819 1644.853, 1941.905 1676.565, 1944.444 1696 C 1950.467 1742.108, 1968.768 1775.527, 1998.692 1795.062 C 2017.517 1807.351, 2036.482 1813.004, 2058.860 1812.996 C 2102.797 1812.981, 2138.490 1793.159, 2164.196 1754.500 C 2185.229 1722.867, 2200.066 1674.449, 2204.114 1624.237 C 2205.167 1611.172, 2205.572 1609.038, 2206.922 1609.416 C 2218.939 1612.782, 2271.417 1613.578, 2290 1610.678 C 2327.680 1604.796, 2353.221 1592.918, 2375.125 1571.091 C 2389.392 1556.874, 2398.954 1541.314, 2405.495 1521.671 C 2412.958 1499.260, 2414.180 1479.106, 2409.236 1459.989 C 2395.929 1408.544, 2364.374 1380.658, 2309.500 1371.849 C 2299.227 1370.200, 2264.576 1370.217, 2251.718 1371.878 C 2216.544 1376.422, 2183.858 1391.985, 2151.798 1419.455 L 2142.784 1427.178 2118.142 1410.745 C 2104.589 1401.706, 1979.425 1317.916, 1840 1224.543 C 1700.575 1131.171, 1585.942 1054.554, 1585.260 1054.284 C 1584.578 1054.014, 1585.641 1057.328, 1587.623 1061.647 M 1478.500 1060.248 C 1456.500 1060.737, 1437.971 1061.304, 1437.325 1061.508 C 1436.445 1061.786, 1436.524 1063.469, 1437.637 1068.190 C 1442.259 1087.791, 1449.833 1129.202, 1456.121 1169.250 L 1457.181 1176 1524.609 1176 L 1592.038 1176 1591.377 1173.250 C 1591.014 1171.737, 1588.338 1162.175, 1585.431 1152 C 1577.089 1122.797, 1568.419 1099.919, 1555.776 1073.750 L 1548.651 1059 1533.575 1059.180 C 1525.284 1059.279, 1500.500 1059.760, 1478.500 1060.248 M 1336.500 1063.053 C 1313.400 1063.419, 1291.688 1063.782, 1288.250 1063.859 L 1282 1064 1282 1120 L 1282 1176 1354 1176 C 1393.600 1176, 1426 1175.772, 1426 1175.492 C 1426 1175.213, 1425.080 1168.350, 1423.955 1160.242 C 1419.720 1129.711, 1413.392 1094.611, 1407.911 1071.250 L 1405.740 1062 1392.120 1062.193 C 1384.629 1062.300, 1359.600 1062.686, 1336.500 1063.053 M 971.265 1074.132 C 960.478 1104.584, 949.343 1141.518, 943.643 1165.750 L 941.232 1176 1007.571 1176 L 1073.909 1176 1074.432 1172.750 C 1081.279 1130.168, 1088.571 1090.915, 1093.425 1070.508 C 1094.208 1067.213, 1094.771 1064.451, 1094.675 1064.371 C 1094.579 1064.291, 1067.678 1063.896, 1034.896 1063.495 L 975.292 1062.764 971.265 1074.132 M 1125.665 1064.750 C 1124.569 1066.562, 1116.595 1103.148, 1113.517 1120.480 C 1110.395 1138.061, 1105 1172.578, 1105 1174.968 C 1105 1175.668, 1128.817 1176, 1179 1176 L 1253 1176 1253 1120 L 1253 1064 1189.559 1064 C 1154.666 1064, 1125.914 1064.338, 1125.665 1064.750 M 915 1087.773 C 903.175 1094.627, 867.880 1115.085, 836.566 1133.236 C 663.840 1233.355, 506.740 1327.963, 430.901 1377.535 L 415.302 1387.731 408.603 1381.874 C 379.403 1356.344, 344.618 1336.987, 313.510 1328.955 C 296.132 1324.468, 287.991 1323.668, 266.121 1324.294 C 243.802 1324.934, 229.939 1327.304, 212.007 1333.546 C 155.324 1353.276, 124.565 1399.913, 122.340 1469.500 C 121.723 1488.828, 123.106 1500.895, 127.555 1515 C 140.460 1555.908, 175.498 1581.287, 232.484 1591.003 C 251.006 1594.161, 276.583 1595.467, 295.500 1594.221 C 304.300 1593.642, 311.665 1593.333, 311.868 1593.535 C 312.070 1593.737, 311.294 1598.987, 310.144 1605.201 C 306.135 1626.862, 305.503 1634.197, 305.509 1659 C 305.515 1682.317, 305.645 1684.015, 308.218 1694.167 C 319.123 1737.198, 345.032 1765.626, 382.500 1775.671 C 391.775 1778.158, 393.986 1778.355, 413 1778.391 C 435.598 1778.434, 445.086 1777.023, 463.467 1770.886 C 507.978 1756.026, 543.078 1721.556, 557.526 1678.517 C 569.560 1642.668, 567.795 1593.897, 552.923 1551.357 C 546.429 1532.782, 532.953 1508.783, 521.508 1495.413 L 518.010 1491.326 704.255 1379.492 C 806.690 1317.984, 890.605 1267.593, 890.732 1267.514 C 890.860 1267.434, 892.126 1258.173, 893.546 1246.934 C 902.634 1175, 917.116 1115.534, 933.441 1083.116 C 935.469 1079.090, 936.987 1075.686, 936.814 1075.553 C 936.641 1075.420, 926.825 1080.919, 915 1087.773 M 1957.500 1198.922 C 1954.200 1199.901, 1949.025 1201.686, 1946 1202.888 C 1938.416 1205.903, 1902.998 1223.245, 1903.009 1223.937 C 1903.016 1224.404, 1957.873 1258.904, 1960.003 1259.781 C 1960.773 1260.098, 1966.936 1239.860, 1969.985 1227 C 1971.093 1222.325, 1972.290 1214.807, 1972.644 1210.294 C 1973.692 1196.945, 1970.995 1194.919, 1957.500 1198.922 M 935.489 1204.250 C 934.423 1207.219, 929.983 1241.770, 928.902 1255.500 C 927.015 1279.479, 928.482 1311.644, 932.084 1325.250 L 933.077 1329 952.374 1329 C 962.988 1329, 991.939 1328.702, 1016.709 1328.339 L 1061.747 1327.678 1062.414 1307.089 C 1063.552 1272.005, 1065.807 1241.245, 1069.662 1208.250 L 1070.275 1203 1003.106 1203 C 950.277 1203, 935.841 1203.267, 935.489 1204.250 M 1101.519 1204.250 C 1100.121 1208.424, 1094.385 1282.949, 1093.350 1310.375 L 1092.686 1328 1115.093 1327.999 C 1127.417 1327.999, 1163.487 1327.700, 1195.250 1327.335 L 1253 1326.672 1253 1264.836 L 1253 1203 1177.469 1203 C 1117.933 1203, 1101.849 1203.265, 1101.519 1204.250 M 1282 1265.163 L 1282 1327.327 1333.164 1326.663 C 1361.305 1326.299, 1396.353 1326, 1411.049 1326 L 1437.770 1326 1437.394 1319.750 C 1437.187 1316.313, 1436.549 1303.825, 1435.976 1292 C 1434.586 1263.302, 1431.116 1218.448, 1429.380 1206.750 L 1428.824 1203 1355.412 1203 L 1282 1203 1282 1265.163 M 1461.351 1209.743 C 1461.703 1213.459, 1462.652 1223.475, 1463.461 1232 C 1465.818 1256.841, 1466.989 1278.865, 1467.253 1303.319 L 1467.500 1326.139 1535.500 1325.438 C 1572.900 1325.052, 1603.725 1324.533, 1604 1324.285 C 1604.275 1324.036, 1604.488 1307.783, 1604.474 1288.166 C 1604.446 1251.533, 1603.491 1238.056, 1599.147 1213 L 1597.500 1203.500 1529.106 1203.243 L 1460.712 1202.986 1461.351 1209.743 M 2112.010 1245.170 C 2106.665 1246.719, 2089.937 1254.851, 2075.500 1262.917 C 2052.635 1275.693, 2021.913 1294.242, 2022.211 1295.091 C 2022.686 1296.445, 2079.374 1338.296, 2080.876 1338.402 C 2083.240 1338.569, 2109.989 1280.192, 2116.496 1260.665 C 2119.363 1252.062, 2119.592 1244.648, 2117 1244.338 C 2116.175 1244.239, 2113.930 1244.613, 2112.010 1245.170 M 1243.500 1356.264 C 1074.100 1356.767, 935.362 1357.314, 935.193 1357.480 C 933.735 1358.910, 951.833 1399.121, 962.152 1417.378 C 991.682 1469.624, 1033.412 1515.095, 1079.540 1545.289 C 1158.994 1597.299, 1265.459 1611.837, 1358.695 1583.411 C 1439.942 1558.640, 1517.091 1493.986, 1572.044 1404.616 C 1580.947 1390.136, 1596.066 1361.968, 1597.467 1357.250 L 1598.135 1355 1574.817 1355.174 C 1561.993 1355.270, 1412.900 1355.761, 1243.500 1356.264 M 1682.264 1406.948 C 1635.726 1448.225, 1596.520 1524.730, 1576.416 1613.500 C 1572.999 1628.584, 1567.566 1658.908, 1568.174 1659.497 C 1568.664 1659.972, 1639.541 1642.046, 1663 1635.513 C 1765.054 1607.096, 1846.725 1575.654, 1885.281 1549.940 C 1899.207 1540.652, 1901.930 1538.273, 1900 1537.077 C 1899.175 1536.566, 1851.990 1505.515, 1795.144 1468.074 C 1738.299 1430.633, 1691.408 1400, 1690.943 1400 C 1690.479 1400, 1686.573 1403.127, 1682.264 1406.948" stroke="none" fill="#000000" fill-rule="evenodd"/></svg>