<svg xmlns="http://www.w3.org/2000/svg" width="1659" height="1852" viewBox="0 0 1659 1852" version="1.1"><path d="M 705.002 70.750 C 705.003 71.713, 705.643 78.800, 706.424 86.500 C 714.168 162.826, 700.622 244.208, 665.979 329.500 C 647.527 374.930, 614.865 434.287, 588.828 469.707 C 586.723 472.571, 585 475.108, 585 475.344 C 585 475.581, 589.388 473.319, 594.750 470.318 C 642.312 443.705, 696.806 424.523, 748.940 416.044 C 755.782 414.931, 761.713 413.678, 762.119 413.260 C 762.526 412.842, 766.457 406.544, 770.854 399.265 C 820.088 317.752, 885.157 254.605, 947.231 228.096 C 953.429 225.449, 960.862 222.509, 963.750 221.562 C 966.638 220.614, 969 219.724, 969 219.584 C 969 219.443, 965.451 210.592, 961.114 199.914 C 941.218 150.932, 921.761 112.864, 900.603 81.522 L 892.516 69.543 891.322 85.213 C 887.477 135.662, 875.745 182.320, 857.015 221.656 C 851.164 233.945, 841.826 250.527, 838.319 254.856 L 836.410 257.212 830.621 245.356 C 800.807 184.300, 760.871 122.043, 732.130 91.816 C 723.914 83.175, 707.435 69, 705.606 69 C 705.273 69, 705.001 69.787, 705.002 70.750 M 1037.048 77.559 C 1030.555 125.433, 1021.446 166.626, 1010.474 197.737 C 1008.026 204.678, 1006.174 210.507, 1006.357 210.691 C 1006.541 210.874, 1012.460 210.510, 1019.512 209.882 C 1034.502 208.547, 1054.528 209.771, 1071.594 213.064 C 1077.438 214.192, 1082.481 214.852, 1082.801 214.532 C 1083.605 213.729, 1076.920 183.821, 1070.949 161.506 C 1062.543 130.089, 1047.675 86.968, 1040.276 72.547 L 1038.261 68.618 1037.048 77.559 M 1015.500 229.057 C 959.539 234.839, 902.293 267.457, 851.872 322.290 C 830.898 345.099, 811.402 370.530, 793.882 397.935 C 789.547 404.715, 785.999 410.541, 785.998 410.882 C 785.997 411.222, 793.760 411.086, 803.248 410.580 C 822.492 409.553, 854.393 410.877, 874.395 413.531 C 880.938 414.399, 886.599 414.747, 886.975 414.305 C 887.351 413.862, 889.827 408.325, 892.477 402 C 904.001 374.493, 921.093 344.316, 937.579 322.366 C 947.696 308.896, 968.818 286.714, 980.500 277.289 C 992.374 267.709, 1008 257.626, 1020.455 251.506 C 1033.252 245.218, 1054.593 237.898, 1067.410 235.399 C 1077.848 233.365, 1077.251 232.862, 1061.644 230.544 C 1048.243 228.555, 1026.993 227.870, 1015.500 229.057 M 1076.500 252.957 C 1056.490 256.545, 1043.273 261.109, 1024.085 271.055 C 986.364 290.608, 954.035 324.869, 926.983 373.963 C 920.440 385.836, 905.422 417.912, 906.178 418.396 C 906.355 418.509, 914.159 420.476, 923.519 422.768 C 979.712 436.525, 1036.846 463.100, 1087.505 499.045 L 1101.500 508.974 1102.396 503.237 C 1103.853 493.909, 1103.700 380.270, 1102.202 359.500 C 1099.349 319.914, 1093.773 269.902, 1090.413 253.750 C 1089.746 250.542, 1089.912 250.552, 1076.500 252.957 M 1342.370 451 C 1342.370 456.775, 1342.535 459.137, 1342.737 456.250 C 1342.939 453.363, 1342.939 448.637, 1342.737 445.750 C 1342.535 442.863, 1342.370 445.225, 1342.370 451 M 808.248 731.232 L 808 1019.964 783.750 1020.251 L 759.500 1020.537 783.781 1020.769 C 802.460 1020.947, 808.172 1020.712, 808.537 1019.750 C 808.799 1019.063, 808.896 888.900, 808.754 730.500 L 808.497 442.500 808.248 731.232 M 830.235 473.250 L 830 504 833.250 503.850 C 836.254 503.712, 836.293 503.669, 833.765 503.285 L 831.029 502.870 830.749 472.685 L 830.470 442.500 830.235 473.250 M 1525.750 486.737 C 1528.638 486.939, 1533.362 486.939, 1536.250 486.737 C 1539.138 486.535, 1536.775 486.370, 1531 486.370 C 1525.225 486.370, 1522.862 486.535, 1525.750 486.737 M 325.500 569 C 334.838 578.350, 342.703 586, 342.978 586 C 343.253 586, 335.838 578.350, 326.500 569 C 317.162 559.650, 309.297 552, 309.022 552 C 308.747 552, 316.162 559.650, 325.500 569 M 1098.500 618 C 1105.083 624.600, 1110.694 630, 1110.969 630 C 1111.244 630, 1106.083 624.600, 1099.500 618 C 1092.917 611.400, 1087.306 606, 1087.031 606 C 1086.756 606, 1091.917 611.400, 1098.500 618 M 392.500 635 C 400.736 643.250, 407.700 650, 407.975 650 C 408.250 650, 401.736 643.250, 393.500 635 C 385.264 626.750, 378.300 620, 378.025 620 C 377.750 620, 384.264 626.750, 392.500 635 M 270 645.260 C 270 645.402, 278.887 654.290, 289.750 665.010 L 309.500 684.500 290.010 664.750 C 271.901 646.400, 270 644.548, 270 645.260 M 1540.750 656.737 C 1543.638 656.939, 1548.362 656.939, 1551.250 656.737 C 1554.138 656.535, 1551.775 656.370, 1546 656.370 C 1540.225 656.370, 1537.862 656.535, 1540.750 656.737 M 357.500 732 C 362.427 736.950, 366.683 741, 366.958 741 C 367.233 741, 363.427 736.950, 358.500 732 C 353.573 727.050, 349.317 723, 349.042 723 C 348.767 723, 352.573 727.050, 357.500 732 M 1273.417 878.500 C 1273.418 888.950, 1273.566 893.089, 1273.746 887.698 C 1273.926 882.307, 1273.925 873.757, 1273.744 868.698 C 1273.563 863.639, 1273.416 868.050, 1273.417 878.500 M 374.365 875.500 C 374.368 881, 374.536 883.122, 374.738 880.216 C 374.941 877.311, 374.939 872.811, 374.734 870.216 C 374.528 867.622, 374.363 870, 374.365 875.500 M 1208.360 879 C 1208.360 884.225, 1208.529 886.362, 1208.735 883.750 C 1208.941 881.138, 1208.941 876.862, 1208.735 874.250 C 1208.529 871.638, 1208.360 873.775, 1208.360 879 M 807.999 1078.201 C 807.725 1099.486, 807.843 1116.558, 808.262 1116.139 C 808.681 1115.719, 808.906 1098.304, 808.762 1077.438 L 808.499 1039.500 807.999 1078.201 M 969.784 1093.738 C 972.689 1093.941, 977.189 1093.939, 979.784 1093.734 C 982.378 1093.528, 980 1093.363, 974.500 1093.365 C 969 1093.368, 966.878 1093.536, 969.784 1093.738 M 633.280 1111.736 C 635.909 1111.943, 639.959 1111.940, 642.280 1111.731 C 644.601 1111.521, 642.450 1111.352, 637.500 1111.355 C 632.550 1111.358, 630.651 1111.530, 633.280 1111.736 M 819.241 1188.250 L 819.483 1244.500 819.750 1188.818 L 820.017 1133.137 822.258 1132.705 C 824.170 1132.336, 824.095 1132.252, 821.750 1132.136 L 819 1132 819.241 1188.250 M 1095.481 1148.250 L 1085.500 1158.500 1095.750 1148.519 C 1101.388 1143.029, 1106 1138.417, 1106 1138.269 C 1106 1137.545, 1104.752 1138.730, 1095.481 1148.250 M 1143.479 1189.250 L 1134.500 1198.500 1143.750 1189.521 C 1152.341 1181.181, 1153.455 1180, 1152.729 1180 C 1152.580 1180, 1148.418 1184.162, 1143.479 1189.250 M 808 1290.943 L 808 1320.885 803.750 1321.268 L 799.500 1321.651 804.250 1321.825 L 809 1322 809 1291.500 C 809 1274.725, 808.775 1261, 808.500 1261 C 808.225 1261, 808 1274.474, 808 1290.943 M 830.235 1291.750 L 830.470 1322.500 830.749 1292.312 L 831.029 1262.125 834.265 1261.722 C 837.432 1261.329, 837.421 1261.317, 833.750 1261.160 L 830 1261 830.235 1291.750 M 799.250 1344.723 L 808 1345.078 808 1386.956 C 808 1414.558, 807.651 1429.007, 806.975 1429.342 C 806.411 1429.621, 806.524 1429.734, 807.225 1429.592 C 808.234 1429.387, 808.500 1420.492, 808.500 1386.917 L 808.500 1344.500 799.500 1344.434 L 790.500 1344.369 799.250 1344.723 M 830.458 1386.500 C 830.459 1410.150, 830.590 1419.682, 830.749 1407.682 C 830.909 1395.683, 830.909 1376.333, 830.749 1364.682 C 830.589 1353.032, 830.458 1362.850, 830.458 1386.500 M 800.250 1452.730 L 808 1453.081 808 1492.498 L 808 1531.916 800.250 1532.257 L 792.500 1532.598 800.761 1532.799 L 809.023 1533 808.761 1492.750 L 808.500 1452.500 800.500 1452.439 L 792.500 1452.379 800.250 1452.730 M 830.457 1453.252 C 830.193 1453.941, 830.100 1472.278, 830.250 1494.002 L 830.524 1533.500 830.762 1493.310 L 831 1453.121 834.750 1452.728 L 838.500 1452.336 834.719 1452.168 C 832.475 1452.068, 830.742 1452.509, 830.457 1453.252 M 1386.250 1473.735 C 1388.862 1473.941, 1393.138 1473.941, 1395.750 1473.735 C 1398.362 1473.529, 1396.225 1473.360, 1391 1473.360 C 1385.775 1473.360, 1383.638 1473.529, 1386.250 1473.735 M 813.287 1561.740 C 816.469 1561.939, 821.419 1561.937, 824.287 1561.736 C 827.154 1561.535, 824.550 1561.372, 818.500 1561.374 C 812.450 1561.376, 810.104 1561.541, 813.287 1561.740 M 262.385 1645 C 262.385 1651.875, 262.545 1654.688, 262.740 1651.250 C 262.936 1647.813, 262.936 1642.188, 262.740 1638.750 C 262.545 1635.313, 262.385 1638.125, 262.385 1645 M 1393.250 1646.735 C 1395.862 1646.941, 1400.138 1646.941, 1402.750 1646.735 C 1405.362 1646.529, 1403.225 1646.360, 1398 1646.360 C 1392.775 1646.360, 1390.638 1646.529, 1393.250 1646.735" stroke="none" fill="#6ec2cc" fill-rule="evenodd"/><path d="M 870.431 2.750 C 873.091 15.159, 873.827 46.314, 871.949 67 C 869.504 93.935, 863.977 125.131, 856.004 157 C 848.138 188.445, 840 214.410, 840 208.064 C 840 206.280, 825.421 179.377, 816.664 165 C 802.265 141.361, 785.903 118.407, 768.192 97 C 754.852 80.875, 721.961 48.360, 706.500 36.012 C 688.836 21.905, 657.824 1.596, 659.216 5.047 C 659.539 5.846, 661.164 9.875, 662.828 14 C 670.007 31.796, 676.028 56.059, 679.702 82 C 681.127 92.062, 681.469 101.327, 681.457 129.500 C 681.440 168.583, 680.254 181.330, 673.408 216 C 656.653 300.855, 615.887 390.209, 553.193 479.500 C 533.402 507.687, 528.735 513.308, 517.752 522.185 C 484.556 549.016, 450.762 583.364, 425.996 615.445 L 417.699 626.192 362.350 570.850 C 331.907 540.411, 307 515.169, 307 514.756 C 307 514.343, 308.574 511.814, 310.497 509.137 C 315.546 502.109, 323.474 484.935, 326.486 474.500 C 331.331 457.712, 332.430 449.024, 332.429 427.500 C 332.428 408.477, 332.293 407.063, 329.662 398.556 C 319.119 364.464, 300.397 340.889, 273.500 327.837 C 258.225 320.424, 246.967 317.872, 227 317.296 C 215.114 316.952, 207.704 317.246, 200.500 318.346 C 156.192 325.113, 125.237 352.233, 110.114 397.533 C 106.588 408.093, 103.370 423.416, 102.417 434.182 L 101.736 441.864 96.618 443.073 C 93.803 443.738, 87.029 445.829, 81.565 447.720 C 36.251 463.401, 6.798 491.786, 0.941 525.420 C -0.653 534.571, 0.290 564.023, 2.495 574 C 11.541 614.914, 35.950 642.548, 71.500 652.123 C 78.191 653.925, 82.117 654.267, 95.500 654.211 C 138.540 654.034, 180.996 642.887, 207.848 624.712 L 212.197 621.769 229.848 639.181 C 239.557 648.758, 272.860 681.643, 303.856 712.258 L 360.213 767.921 356.130 784.711 C 347.264 821.170, 344.579 843.789, 344.579 882 C 344.579 919.119, 347.604 944.540, 356.121 979 C 381.091 1080.025, 449.838 1183.867, 543.500 1262.035 C 549.550 1267.084, 555.063 1271.440, 555.750 1271.715 C 556.438 1271.989, 557 1272.574, 557 1273.014 C 557 1273.629, 460.542 1364.418, 346.238 1471.389 L 340.975 1476.314 333.738 1469.298 C 316.370 1452.463, 295.729 1443.551, 267.769 1440.815 C 242.962 1438.387, 211.042 1444.017, 189.985 1454.534 C 180.996 1459.024, 167.081 1470.016, 157.315 1480.342 C 135.455 1503.454, 124.784 1529.409, 122.509 1565 C 121.072 1587.482, 128.214 1608.668, 143.772 1628.078 C 166.674 1656.650, 200.934 1668.483, 231.285 1658.303 L 240.069 1655.356 239.285 1659.928 C 238.002 1667.399, 238.598 1681.032, 240.510 1688 C 245.091 1704.692, 253.759 1718.704, 267.800 1732.115 C 286.799 1750.263, 309.169 1759.918, 339.444 1763.037 C 368.156 1765.996, 391.884 1759.869, 412.709 1744.121 C 433.663 1728.274, 450.294 1701.789, 457.089 1673.445 C 463.688 1645.920, 455.062 1603.439, 437.909 1578.985 C 435.590 1575.679, 433.912 1572.755, 434.180 1572.487 C 434.448 1572.218, 450.155 1558.993, 469.084 1543.096 L 503.500 1514.194 504.196 1522.347 C 504.579 1526.831, 505.381 1536.350, 505.978 1543.500 C 511.339 1607.720, 527.631 1691.825, 549.368 1767.500 C 556.224 1791.368, 571.301 1838.452, 574.324 1845.434 L 575.594 1848.367 613.528 1805.434 C 634.391 1781.820, 663.311 1749.103, 677.793 1732.730 C 692.276 1716.356, 704.434 1703.164, 704.812 1703.413 C 705.191 1703.663, 730.250 1736.953, 760.500 1777.391 C 790.750 1817.829, 815.780 1850.934, 816.121 1850.957 C 816.463 1850.981, 841.663 1819.500, 872.121 1781 C 902.580 1742.500, 927.826 1711.113, 928.224 1711.250 C 928.622 1711.388, 954.272 1742.968, 985.224 1781.429 C 1016.176 1819.890, 1042.016 1851.525, 1042.647 1851.728 C 1044.648 1852.374, 1061.173 1807.313, 1070.968 1774.500 C 1091.689 1705.090, 1108.113 1618.141, 1115.684 1537.771 C 1116.655 1527.470, 1117.910 1518.868, 1118.474 1518.655 C 1119.571 1518.242, 1198.831 1585.916, 1198.937 1587.356 C 1198.972 1587.827, 1197.702 1589.852, 1196.116 1591.856 C 1185.425 1605.367, 1177.892 1628.251, 1176.061 1652.786 C 1174.121 1678.789, 1179.388 1703.360, 1191.220 1723.500 C 1203.515 1744.428, 1223.423 1762.166, 1244.425 1770.902 C 1274.012 1783.210, 1311.972 1782.675, 1338.500 1769.576 C 1368.614 1754.705, 1385.806 1723.007, 1386.334 1681.382 L 1386.500 1668.264 1396.500 1667.594 C 1441.609 1664.572, 1470.800 1647.352, 1485.924 1614.844 C 1493.531 1598.491, 1496.985 1580.253, 1496.994 1556.381 C 1497.007 1522.845, 1488.947 1499.702, 1470.411 1480.053 C 1449.031 1457.389, 1416.039 1446.862, 1379.507 1451.047 C 1354.983 1453.856, 1324.649 1463.168, 1300.081 1475.429 L 1293.500 1478.714 1193.500 1381.836 C 1138.500 1328.554, 1090.911 1282.374, 1087.746 1279.216 L 1081.993 1273.473 1093.028 1265.203 C 1134.259 1234.306, 1177.402 1191.474, 1205.497 1153.546 C 1257.157 1083.806, 1286.175 1009.927, 1295.659 924 C 1298.032 902.502, 1298.037 855.162, 1295.669 834.911 C 1294.731 826.887, 1293.274 816.537, 1292.431 811.911 C 1291.588 807.285, 1290.658 802.150, 1290.364 800.500 C 1289.846 797.599, 1292.409 795.242, 1367.771 729.313 L 1445.714 661.126 1460.607 665.627 C 1490.639 674.703, 1514.627 679.910, 1536.733 682.151 C 1555.847 684.088, 1575.407 681.031, 1591.520 673.586 C 1623.463 658.827, 1648.318 625.465, 1656.419 586.472 C 1658.619 575.883, 1660.002 557.218, 1659.789 541 L 1659.598 526.500 1659.049 538.500 C 1658.530 549.846, 1658.458 550.173, 1657.725 544.500 C 1656.631 536.022, 1651.830 522.826, 1647.418 516.166 C 1629.448 489.041, 1590.597 468.657, 1548.187 464.101 C 1543.615 463.610, 1539.626 462.959, 1539.322 462.655 C 1539.017 462.351, 1539.295 459.266, 1539.939 455.801 C 1540.583 452.335, 1541.354 443.200, 1541.653 435.500 C 1543.205 395.567, 1528.564 363.144, 1500.568 344.516 C 1484.459 333.798, 1469.207 329.146, 1447.500 328.329 C 1419.150 327.263, 1394.651 334.528, 1368.726 351.689 C 1359.071 358.079, 1338.576 378.558, 1332.056 388.330 C 1316.772 411.236, 1310.288 436.588, 1312.994 462.872 C 1315.457 486.803, 1323.739 509.916, 1337.726 531.893 C 1341.036 537.094, 1341.093 537.347, 1339.329 538.996 C 1338.323 539.936, 1315.225 561.091, 1288 586.007 C 1260.775 610.924, 1236.473 633.252, 1233.995 635.626 L 1229.490 639.942 1220.370 627.721 C 1215.354 620.999, 1206.367 609.650, 1200.399 602.500 C 1186.814 586.225, 1152.451 551.245, 1136.209 537.159 C 1124.202 526.745, 1123.931 526.419, 1124.435 523 C 1127.540 501.933, 1128.738 387.657, 1126.212 353.500 C 1124.189 326.146, 1121.135 297.019, 1117.959 274.777 C 1116.332 263.379, 1115 253.422, 1115 252.650 C 1115 250.217, 1122.532 251.707, 1167.250 262.985 C 1190.763 268.915, 1209.991 273.482, 1209.980 273.133 C 1209.951 272.240, 1124.986 229.518, 1116.547 226.153 L 1109.594 223.381 1104.895 202.941 C 1091.477 144.579, 1074.322 95.637, 1050.761 48.500 C 1042.451 31.874, 1027.565 5.467, 1025.936 4.460 C 1025.388 4.122, 1024.996 6.909, 1024.989 11.191 C 1024.948 39.164, 1014.776 94.164, 1000.426 144 C 994.951 163.015, 982.809 200.143, 982.249 199.582 C 982.024 199.357, 976.991 188.897, 971.066 176.337 C 926.911 82.748, 893.162 20.537, 878.029 4.836 C 872.659 -0.735, 869.498 -1.603, 870.431 2.750 M 705.002 70.750 C 705.003 71.713, 705.643 78.800, 706.424 86.500 C 714.168 162.826, 700.622 244.208, 665.979 329.500 C 647.527 374.930, 614.865 434.287, 588.828 469.707 C 586.723 472.571, 585 475.108, 585 475.344 C 585 475.581, 589.388 473.319, 594.750 470.318 C 642.312 443.705, 696.806 424.523, 748.940 416.044 C 755.782 414.931, 761.713 413.678, 762.119 413.260 C 762.526 412.842, 766.457 406.544, 770.854 399.265 C 820.088 317.752, 885.157 254.605, 947.231 228.096 C 953.429 225.449, 960.862 222.509, 963.750 221.562 C 966.638 220.614, 969 219.724, 969 219.584 C 969 219.443, 965.451 210.592, 961.114 199.914 C 941.218 150.932, 921.761 112.864, 900.603 81.522 L 892.516 69.543 891.322 85.213 C 887.477 135.662, 875.745 182.320, 857.015 221.656 C 851.164 233.945, 841.826 250.527, 838.319 254.856 L 836.410 257.212 830.621 245.356 C 800.807 184.300, 760.871 122.043, 732.130 91.816 C 723.914 83.175, 707.435 69, 705.606 69 C 705.273 69, 705.001 69.787, 705.002 70.750 M 1037.048 77.559 C 1030.555 125.433, 1021.446 166.626, 1010.474 197.737 C 1008.026 204.678, 1006.174 210.507, 1006.357 210.691 C 1006.541 210.874, 1012.460 210.510, 1019.512 209.882 C 1034.502 208.547, 1054.528 209.771, 1071.594 213.064 C 1077.438 214.192, 1082.481 214.852, 1082.801 214.532 C 1083.605 213.729, 1076.920 183.821, 1070.949 161.506 C 1062.543 130.089, 1047.675 86.968, 1040.276 72.547 L 1038.261 68.618 1037.048 77.559 M 1015.500 229.057 C 959.539 234.839, 902.293 267.457, 851.872 322.290 C 830.898 345.099, 811.402 370.530, 793.882 397.935 C 789.547 404.715, 785.999 410.541, 785.998 410.882 C 785.997 411.222, 793.760 411.086, 803.248 410.580 C 822.492 409.553, 854.393 410.877, 874.395 413.531 C 880.938 414.399, 886.599 414.747, 886.975 414.305 C 887.351 413.862, 889.827 408.325, 892.477 402 C 904.001 374.493, 921.093 344.316, 937.579 322.366 C 947.696 308.896, 968.818 286.714, 980.500 277.289 C 992.374 267.709, 1008 257.626, 1020.455 251.506 C 1033.252 245.218, 1054.593 237.898, 1067.410 235.399 C 1077.848 233.365, 1077.251 232.862, 1061.644 230.544 C 1048.243 228.555, 1026.993 227.870, 1015.500 229.057 M 1076.500 252.957 C 1056.490 256.545, 1043.273 261.109, 1024.085 271.055 C 986.364 290.608, 954.035 324.869, 926.983 373.963 C 920.440 385.836, 905.422 417.912, 906.178 418.396 C 906.355 418.509, 914.159 420.476, 923.519 422.768 C 979.712 436.525, 1036.846 463.100, 1087.505 499.045 L 1101.500 508.974 1102.396 503.237 C 1103.853 493.909, 1103.700 380.270, 1102.202 359.500 C 1099.349 319.914, 1093.773 269.902, 1090.413 253.750 C 1089.746 250.542, 1089.912 250.552, 1076.500 252.957 M 208.500 338.957 C 177.266 342.060, 154.387 359.748, 137.463 393.876 C 129.793 409.344, 122.664 432.878, 120.006 451.500 C 118.083 464.977, 119.219 463.624, 109.268 464.278 C 74.745 466.550, 41.698 492.691, 29.806 527.135 C 26.794 535.858, 26.575 537.392, 26.611 549.500 C 26.644 560.681, 27.025 563.730, 29.331 571.288 C 39.510 604.642, 63.245 627.829, 90 630.557 C 104.142 631.999, 135.622 627.422, 156.577 620.878 C 174.635 615.238, 200.032 604.055, 212.141 596.411 C 214.242 595.085, 216.420 594, 216.982 594 C 217.910 594, 264.461 639.657, 338.640 713.322 L 366.780 741.267 368.489 735.384 C 372.759 720.674, 386.084 691.359, 400.550 664.845 C 404.647 657.335, 408 650.793, 408 650.307 C 408 649.822, 379.016 620.924, 343.592 586.090 L 279.184 522.756 283.701 516.628 C 295.622 500.454, 303.030 477.451, 305.937 447.576 C 310.034 405.475, 302.866 378.111, 282.854 359.458 C 266.122 343.862, 237.781 336.048, 208.500 338.957 M 1419.901 355.950 C 1383.425 365.234, 1353.974 392.918, 1344.846 426.500 C 1343.012 433.246, 1342.671 437.165, 1342.671 451.500 C 1342.671 469.955, 1344.485 481.733, 1349.680 497 C 1354.677 511.683, 1366.970 532.234, 1375.356 539.924 C 1376.810 541.258, 1378 542.703, 1378 543.137 C 1378 543.570, 1347.850 570.979, 1311 604.045 C 1274.150 637.111, 1244 664.357, 1244 664.592 C 1244 664.827, 1245.997 668.727, 1248.438 673.260 C 1259.260 693.351, 1272.450 726.253, 1280.926 754.295 C 1283.551 762.983, 1286.025 770.107, 1286.422 770.127 C 1286.819 770.146, 1321.424 739.816, 1363.322 702.727 C 1405.220 665.637, 1440.958 634.064, 1442.739 632.566 L 1445.978 629.841 1457.739 634.880 C 1483.510 645.923, 1506.598 652.739, 1527.526 655.482 C 1547.582 658.112, 1561.304 657.138, 1577.500 651.938 C 1604.504 643.268, 1621.804 623.092, 1627.608 593.500 C 1630.187 580.353, 1630.001 558.274, 1627.216 546.903 C 1620.631 520.018, 1603.828 502.164, 1576.619 493.142 C 1561.571 488.152, 1550.826 486.626, 1530.312 486.567 L 1512.123 486.514 1511.756 447.507 C 1511.344 403.788, 1511.268 403.215, 1503.860 388.086 C 1498.182 376.490, 1489.330 367.657, 1477.872 362.156 C 1465.427 356.181, 1459.615 354.912, 1442.500 354.434 C 1429.989 354.085, 1426.239 354.336, 1419.901 355.950 M 785.500 444.089 C 650.731 454.993, 531.847 520.471, 454.653 626.310 C 424.128 668.162, 400.226 719.244, 387.498 769.827 C 371.208 834.568, 370.196 901.910, 384.509 968.753 C 412.780 1100.775, 506.856 1218.597, 631.474 1278.051 C 684.953 1303.566, 737.426 1317.132, 799.750 1321.556 L 809 1322.212 809 1291.678 L 809 1261.144 803.750 1260.613 C 800.862 1260.321, 794.675 1259.824, 790 1259.509 C 751.319 1256.903, 718.107 1245.299, 711.177 1231.968 C 708.300 1226.433, 708.701 1219.498, 712.476 1209.469 C 723.509 1180.156, 766.202 1136.496, 799.750 1120.217 L 809 1115.728 809 1077.864 L 809 1040 797.250 1039.995 C 790.788 1039.992, 781.225 1039.741, 776 1039.438 L 766.500 1038.887 761.541 1046.014 C 754.283 1056.448, 737.262 1072.400, 723.873 1081.315 C 710.934 1089.932, 691.924 1099.337, 678.249 1103.885 C 637.403 1117.472, 597.947 1111.443, 564.898 1086.564 C 554.593 1078.807, 538.707 1062.387, 530.684 1051.201 C 505.538 1016.142, 484.811 962.698, 474.470 906.254 C 473.034 898.419, 472.004 891.120, 472.180 890.034 C 472.449 888.373, 474.328 889.501, 484 897.128 C 544.290 944.673, 614.286 984.062, 673.820 1003.944 C 712.033 1016.706, 744.758 1021.496, 789 1020.805 L 808.500 1020.500 808.752 731.750 L 809.003 443 802.252 443.140 C 798.538 443.217, 791 443.644, 785.500 444.089 M 830 473.350 L 830 503.701 843.250 504.394 C 928.934 508.876, 1013.081 542.676, 1078.063 598.712 C 1092.841 611.455, 1115.879 635.331, 1127.553 650 C 1180.180 716.132, 1207.938 795.224, 1207.990 879.196 C 1208.046 969.740, 1174.845 1058.442, 1115.204 1127.090 C 1105.006 1138.827, 1084.262 1159.495, 1073 1169.138 C 1020.959 1213.696, 953.911 1244.998, 887 1255.973 C 872.061 1258.423, 846.351 1261, 836.839 1261 L 830 1261 830 1291.500 L 830 1322 836.855 1322 C 853.304 1322, 886.228 1318.439, 907.500 1314.358 C 1029.379 1290.980, 1135.722 1219.652, 1203.232 1116 C 1274.376 1006.768, 1293.022 870.377, 1253.427 748.837 C 1241.468 712.128, 1226.025 679.796, 1205.263 648 C 1133.405 537.951, 1013.270 463.450, 880.500 446.601 C 866.308 444.800, 843.962 443, 835.800 443 L 830 443 830 473.350 M 0.409 544.500 C 0.408 553.850, 0.558 557.810, 0.743 553.299 C 0.928 548.789, 0.929 541.139, 0.745 536.299 C 0.562 531.460, 0.410 535.150, 0.409 544.500 M 872.882 716.333 C 867.213 718.434, 862.335 721.791, 858.581 726.176 C 843.717 743.541, 849.568 769.046, 870.628 778.687 C 875.420 780.881, 877.195 781.151, 884.803 780.842 C 895.044 780.427, 901.114 777.939, 907.526 771.526 C 914.378 764.674, 916.500 759.112, 916.500 748 C 916.500 739.942, 916.128 737.745, 914.052 733.526 C 910.929 727.179, 904.815 721.066, 898.474 717.953 C 892.466 715.003, 878.806 714.138, 872.882 716.333 M 969.882 716.323 C 961.468 719.463, 955.141 725.072, 950.756 733.278 C 948.826 736.890, 948.500 739.017, 948.500 748 C 948.500 757.747, 948.711 758.880, 951.438 763.804 C 954.775 769.827, 959.933 774.858, 966.205 778.207 C 969.900 780.179, 971.968 780.500, 981 780.500 C 990.747 780.500, 991.880 780.289, 996.804 777.562 C 1002.827 774.225, 1007.858 769.067, 1011.207 762.795 C 1013.179 759.100, 1013.500 757.032, 1013.500 748 C 1013.500 738.968, 1013.179 736.900, 1011.207 733.205 C 1007.843 726.905, 1002.810 721.760, 996.804 718.480 C 992.264 716.002, 990.203 715.541, 982.500 715.279 C 976.684 715.082, 972.220 715.451, 969.882 716.323 M 1063.500 717.802 C 1056.566 721.150, 1049.794 728.010, 1046.697 734.824 C 1043.690 741.440, 1043.699 754.580, 1046.715 761.217 C 1049.903 768.232, 1057.011 775.283, 1064.105 778.467 C 1069.512 780.893, 1071.129 781.154, 1078.839 780.841 C 1085.342 780.577, 1088.669 779.915, 1092.193 778.183 C 1098.717 774.977, 1104.718 768.834, 1107.849 762.155 C 1110.068 757.422, 1110.499 755.114, 1110.495 748 C 1110.488 737.767, 1107.625 730.545, 1101.041 724.156 C 1094.384 717.696, 1088.983 715.550, 1078.500 715.203 C 1070.290 714.931, 1068.973 715.159, 1063.500 717.802 M 497.512 933.702 C 501.719 955.735, 511.504 981.796, 523.718 1003.500 C 547.321 1045.440, 576.939 1075.257, 606.767 1087.106 C 639.944 1100.286, 680.207 1089.690, 721.570 1056.895 C 730.413 1049.883, 740 1041.091, 740 1039.992 C 740 1039.598, 736.063 1038.967, 731.250 1038.592 C 692.831 1035.591, 652.123 1024.018, 611.500 1004.549 C 574.975 987.044, 537.892 962.596, 507.521 936 C 502.182 931.325, 497.455 927.366, 497.014 927.202 C 496.574 927.039, 496.798 929.964, 497.512 933.702 M 1106.112 934.140 C 1092.299 947.265, 1064.102 968.398, 1042 982.191 C 988.982 1015.277, 929.080 1036.496, 879.718 1039.676 C 873.314 1040.088, 870.058 1040.685, 870.292 1041.403 C 870.897 1043.269, 888.995 1058.752, 898.213 1065.292 C 916.125 1077.999, 932.453 1086.023, 950 1090.741 C 962.350 1094.062, 983.686 1094.517, 994 1091.679 C 1003.557 1089.049, 1019.448 1081.015, 1029.066 1073.948 C 1061.920 1049.812, 1093.796 1001.516, 1108.130 954.156 C 1110.340 946.856, 1114 930.789, 1114 928.390 C 1114 927.135, 1111.783 928.751, 1106.112 934.140 M 819 1188.155 L 819 1244.311 833.250 1243.641 C 876.087 1241.628, 906.876 1231.137, 909.397 1217.696 C 911.508 1206.445, 901.288 1189.005, 880.569 1168.500 C 862.568 1150.685, 842.418 1137.167, 828.436 1133.525 C 817.878 1130.775, 819 1124.279, 819 1188.155 M 584.162 1293.831 C 578.199 1302.395, 570.432 1319.109, 564.502 1336.136 L 561.147 1345.773 570.554 1352.636 C 584.666 1362.932, 603.452 1374.120, 623 1383.871 C 638.774 1391.739, 663.810 1402.548, 664.521 1401.796 C 664.675 1401.633, 666.411 1392.050, 668.379 1380.500 C 670.346 1368.950, 673.316 1352.792, 674.978 1344.594 C 676.640 1336.396, 678 1329.186, 678 1328.573 C 678 1327.959, 672.038 1325.705, 664.750 1323.564 C 641.003 1316.587, 614.044 1305.915, 595.487 1296.146 L 586.021 1291.162 584.162 1293.831 M 1033 1300.133 C 1016.060 1306.929, 982.874 1317.957, 964 1323.062 C 955.475 1325.368, 948.344 1327.391, 948.153 1327.557 C 947.962 1327.724, 949.404 1335.879, 951.357 1345.680 C 953.309 1355.481, 956.540 1372.950, 958.536 1384.499 C 960.532 1396.049, 962.350 1405.683, 962.576 1405.910 C 963.580 1406.913, 993.171 1396.373, 1014 1387.593 C 1032.924 1379.616, 1072 1359.990, 1072 1358.463 C 1072 1352.935, 1048.490 1294.901, 1046.315 1295.059 C 1045.867 1295.092, 1039.875 1297.375, 1033 1300.133 M 1085 1310.160 C 1085 1310.485, 1086.132 1313.312, 1087.517 1316.442 C 1098.129 1340.438, 1108.686 1399.052, 1114.131 1464.207 L 1115.360 1478.914 1171.632 1530.582 L 1227.905 1582.250 1224.086 1587.875 C 1215.143 1601.048, 1206.760 1620.838, 1202.909 1637.870 C 1200.370 1649.099, 1199.390 1669.239, 1200.910 1678.937 C 1206.876 1716.987, 1234.881 1746.779, 1272.500 1755.093 C 1281.340 1757.047, 1302.021 1756.817, 1310 1754.676 C 1329.602 1749.417, 1344.283 1737.489, 1353.908 1719 C 1362.589 1702.325, 1364.383 1691.492, 1363.269 1662.452 L 1362.500 1642.404 1366.443 1643.764 C 1368.612 1644.512, 1377.081 1645.614, 1385.262 1646.214 C 1409.670 1648.004, 1424.440 1645.115, 1438.800 1635.741 C 1457.061 1623.819, 1469.020 1604.997, 1474.215 1580 C 1475.837 1572.193, 1476.103 1567.916, 1475.705 1556 C 1475.083 1537.354, 1472.049 1526.155, 1463.855 1512.251 C 1459.032 1504.069, 1444.901 1490.127, 1436.306 1485.070 C 1411.489 1470.472, 1380.402 1469.441, 1342.808 1481.970 C 1329.643 1486.358, 1310.860 1495.005, 1299.574 1501.874 L 1292.648 1506.089 1287.074 1500.688 C 1284.008 1497.717, 1239.650 1455.782, 1188.500 1407.500 C 1137.350 1359.218, 1093.138 1317.432, 1090.250 1314.642 C 1087.362 1311.851, 1085 1309.834, 1085 1310.160 M 443.526 1410.484 L 342.618 1503.867 336.059 1498.061 C 316.109 1480.402, 292.914 1468.161, 270.714 1463.576 C 261.027 1461.575, 242.345 1461.534, 233.030 1463.494 C 194.661 1471.565, 162.419 1500.413, 151.368 1536.562 C 148.839 1544.833, 148.630 1546.844, 148.568 1563.500 C 148.509 1579.447, 148.764 1582.408, 150.807 1589.465 C 155.315 1605.041, 163.541 1616.873, 175.358 1624.776 C 189.129 1633.987, 202.959 1637.537, 222 1636.750 C 234.163 1636.246, 243.703 1633.844, 256.504 1628.061 L 262.509 1625.348 262.504 1643.424 C 262.500 1662.801, 263.568 1671.192, 267.733 1684.500 C 274.374 1705.721, 286.828 1721.483, 303.975 1730.371 C 328.668 1743.168, 364.285 1744.225, 387.420 1732.845 C 405.053 1724.172, 418.270 1709.656, 426.673 1689.731 C 433.609 1673.284, 435.829 1657.698, 434.056 1637.890 C 431.903 1613.842, 423.387 1594.289, 405.564 1572.478 L 403.095 1569.455 441.228 1535.478 C 512.465 1472.005, 510 1474.324, 510 1470.781 C 510 1465.221, 515.003 1433.133, 519.086 1412.500 C 525.348 1380.862, 535.743 1341.858, 543.009 1322.735 C 544.078 1319.921, 544.836 1317.502, 544.693 1317.360 C 544.550 1317.217, 499.025 1359.123, 443.526 1410.484 M 919.500 1333.571 C 901.375 1337.397, 865.270 1341.947, 840.250 1343.556 L 830 1344.216 830 1386.608 L 830 1429 837.339 1429 C 855.942 1429, 894.026 1423.908, 920.500 1417.881 C 927.650 1416.253, 934.737 1414.658, 936.250 1414.336 C 938.194 1413.922, 939.006 1413.127, 939.020 1411.625 C 939.052 1408.279, 926.807 1333.570, 926.118 1332.902 C 925.778 1332.573, 922.800 1332.874, 919.500 1333.571 M 693.599 1369.750 C 690.414 1389.963, 687.604 1407.262, 687.355 1408.193 C 686.995 1409.538, 688.300 1410.298, 693.701 1411.888 C 715.523 1418.312, 741.892 1423.704, 765 1426.467 C 780.947 1428.374, 807.177 1429.917, 808.261 1429.013 C 808.680 1428.664, 808.905 1409.505, 808.761 1386.439 L 808.500 1344.500 790.500 1343.858 C 763.464 1342.894, 733.719 1339.543, 711.140 1334.918 C 705.992 1333.863, 701.242 1333, 700.585 1333 C 699.786 1333, 697.475 1345.155, 693.599 1369.750 M 551.238 1381.250 C 544.468 1411.979, 537 1454.835, 537 1462.956 C 537 1465.681, 537.657 1466.305, 543.750 1469.369 C 555.051 1475.052, 580.034 1485.603, 598.398 1492.448 C 614.284 1498.369, 648.029 1509.330, 648.571 1508.744 C 648.739 1508.563, 659.136 1438.064, 660.316 1429.104 C 660.427 1428.261, 658.715 1427.127, 656 1426.245 C 632.961 1418.755, 590.825 1399.009, 566.057 1384.095 C 558.663 1379.643, 552.564 1376, 552.504 1376 C 552.444 1376, 551.874 1378.362, 551.238 1381.250 M 1071.500 1391.710 C 1050.181 1402.708, 1011.402 1417.936, 983.630 1426.214 C 974.209 1429.022, 966.401 1431.385, 966.279 1431.464 C 966.158 1431.543, 967.140 1438.559, 968.462 1447.054 C 969.783 1455.549, 972.508 1473.975, 974.515 1488 C 976.523 1502.024, 978.279 1513.612, 978.416 1513.750 C 978.875 1514.208, 1007.313 1506.147, 1021 1501.679 C 1041.160 1495.097, 1062.754 1486.595, 1078.858 1478.901 L 1093.216 1472.041 1092.563 1462.771 C 1090.486 1433.249, 1082.658 1387.922, 1079.660 1388.049 C 1079.022 1388.076, 1075.350 1389.723, 1071.500 1391.710 M 683 1435.732 C 683 1436.263, 681.239 1449.028, 679.088 1464.099 C 676.936 1479.170, 674.669 1495.775, 674.050 1501 C 673.431 1506.225, 672.714 1511.491, 672.456 1512.701 C 671.884 1515.383, 672.677 1515.640, 696.500 1520.464 C 727.375 1526.716, 762.371 1531.049, 794.261 1532.567 L 809.023 1533.270 808.761 1492.885 L 808.500 1452.500 791.500 1451.852 C 762.701 1450.754, 730.525 1446.325, 702 1439.533 C 694.025 1437.634, 686.487 1435.785, 685.250 1435.424 C 684.013 1435.062, 683 1435.201, 683 1435.732 M 937 1438.692 C 914.541 1444.054, 876.205 1449.509, 848.022 1451.354 L 830.500 1452.500 830.239 1492.905 L 829.977 1533.310 847.675 1532.620 C 878.491 1531.417, 909.661 1527.921, 939.750 1522.294 L 954 1519.629 954 1516.333 C 954 1510.239, 944.435 1441.639, 943.209 1438.940 C 942.584 1437.565, 941.845 1437.535, 937 1438.692 M 530.393 1504.752 C 534.363 1572.711, 550.476 1665.773, 569.982 1733.401 C 574.781 1750.038, 587.187 1787.726, 588.834 1790.667 C 589.439 1791.749, 605.025 1773.926, 648.401 1722.553 C 680.713 1684.285, 707.458 1653.165, 707.836 1653.399 C 708.214 1653.632, 732.593 1687.591, 762.012 1728.863 C 791.430 1770.134, 815.777 1803.924, 816.116 1803.951 C 816.455 1803.978, 840.980 1772.103, 870.616 1733.119 C 917.256 1671.767, 924.702 1662.417, 926 1663.569 C 926.825 1664.301, 951.575 1694.146, 981 1729.892 C 1010.425 1765.637, 1034.785 1794.909, 1035.133 1794.941 C 1035.482 1794.974, 1036.005 1794.213, 1036.295 1793.250 C 1036.586 1792.287, 1039.086 1785.380, 1041.851 1777.901 C 1059.399 1730.422, 1075.607 1660.625, 1086.465 1585.766 C 1091.989 1547.684, 1097.147 1500, 1095.743 1500 C 1095.444 1500, 1091.217 1501.846, 1086.350 1504.101 C 1028.673 1530.831, 955.803 1550.329, 887 1557.442 C 837.077 1562.603, 782.391 1561.923, 734.273 1555.544 C 668.500 1546.824, 601.406 1527.045, 542.126 1498.900 L 529.707 1493.004 530.393 1504.752" stroke="none" fill="#000000" fill-rule="evenodd"/><path d="M 200.500 340.416 C 167.730 346.775, 143.169 372.728, 128.954 416.016 C 125.035 427.953, 120.684 447.173, 119.394 458.250 L 118.725 464 114.993 464 C 108.293 464, 93.997 466.976, 86.167 470.001 C 57.670 481.011, 34.829 506.216, 28.391 533.759 C 26.162 543.297, 26.412 558.545, 28.962 568.500 C 31.186 577.185, 38.022 592.242, 43.161 599.774 C 51.446 611.919, 64.822 622.890, 76.611 627.213 C 94.208 633.665, 135.725 628.590, 170 615.797 C 183.034 610.932, 205.063 600.511, 213.293 595.315 L 217.282 592.797 242.891 618.221 C 256.976 632.204, 290.512 665.369, 317.416 691.921 L 366.332 740.198 370.515 728.349 C 377.051 709.835, 387.776 687.020, 401.938 661.500 L 408.042 650.500 343.309 586.407 L 278.576 522.314 282.376 517.907 C 284.466 515.483, 288.617 508.536, 291.601 502.469 C 301.197 482.960, 305.996 458.147, 306.091 427.553 C 306.152 408.169, 305.110 400.016, 301.067 388.239 C 297.161 376.863, 292.753 369.800, 284.265 361.321 C 278.441 355.504, 275.027 353.106, 266.765 349.034 C 251.710 341.612, 243.888 339.854, 224 339.419 C 212.804 339.174, 205.250 339.494, 200.500 340.416 M 1426.113 355.060 C 1404.612 358.904, 1382.201 371.343, 1366.746 388.009 C 1355.378 400.268, 1347.675 414.923, 1344.567 430.208 C 1342.343 441.148, 1342.512 461.945, 1344.941 476.153 C 1349.025 500.044, 1360.518 524.019, 1375.036 538.931 L 1379.350 543.363 1375.250 546.931 C 1372.995 548.894, 1342.579 576.138, 1307.660 607.473 L 1244.170 664.446 1249.019 673.473 C 1259.662 693.289, 1271.968 723.965, 1280.995 753.182 C 1283.736 762.054, 1286.148 769.481, 1286.354 769.687 C 1286.560 769.893, 1322.553 738.346, 1366.338 699.583 L 1445.949 629.106 1454.224 632.920 C 1472.332 641.265, 1494.922 648.760, 1515.467 653.237 C 1523.817 655.057, 1528.770 655.430, 1545 655.462 C 1562.461 655.496, 1565.337 655.259, 1572.500 653.191 C 1601.003 644.967, 1619.165 626.514, 1626.089 598.743 C 1628.720 588.191, 1629.736 565.462, 1628.083 554.152 C 1623.375 521.957, 1603.460 500.507, 1569.951 491.540 C 1556.960 488.063, 1544.531 486.788, 1527.336 487.166 L 1512.173 487.500 1511.754 449 C 1511.278 405.317, 1510.830 402.167, 1502.936 386.995 C 1495.134 371.997, 1479.502 360.634, 1461 356.508 C 1451.970 354.495, 1433.550 353.730, 1426.113 355.060 M 793.071 444.119 C 651.382 452.225, 521.983 525.312, 445.224 640.590 C 387.527 727.238, 364.347 832.391, 379.552 938.500 C 401.360 1090.691, 505.054 1224.001, 649.780 1285.906 C 695.231 1305.347, 748.884 1318.144, 795.354 1320.629 L 808 1321.305 808 1291.354 L 808 1261.403 792.750 1260.234 C 774.833 1258.861, 758.047 1256.119, 745.500 1252.516 C 727.189 1247.259, 712.508 1238.098, 709.944 1230.332 C 704.671 1214.352, 720.761 1185.987, 752.786 1154.805 C 768.764 1139.248, 784.197 1127.568, 797.750 1120.777 L 808 1115.640 808 1077.820 L 808 1040 787.197 1040 L 766.394 1040 762.307 1045.750 C 738.233 1079.624, 686.595 1108.329, 643.820 1111.617 C 626.841 1112.922, 604.058 1108.471, 587.449 1100.603 C 551.748 1083.691, 522.912 1049.552, 501.207 998.500 C 494.051 981.668, 485.408 955.623, 480.632 936.500 C 475.666 916.615, 470.131 887, 471.381 887 C 471.657 887, 476.726 890.867, 482.645 895.592 C 498.021 907.871, 515.702 920.550, 536.991 934.566 C 606.526 980.347, 671.214 1008.020, 731 1017.564 C 738.648 1018.785, 750.531 1019.373, 774.750 1019.729 L 808 1020.217 808 731.609 C 808 572.874, 807.888 443.066, 807.750 443.147 C 807.612 443.228, 801.007 443.666, 793.071 444.119 M 831 472.894 L 831 502.856 836.250 503.392 C 839.138 503.686, 846 504.194, 851.500 504.519 C 906.300 507.762, 970.734 527.796, 1020.628 557.103 C 1063.918 582.533, 1104.916 618.996, 1134.635 658.500 C 1208.158 756.233, 1228.129 882.285, 1188.659 999.500 C 1146.845 1123.678, 1041.817 1219.805, 914 1250.883 C 892.293 1256.161, 859.740 1260.996, 845.890 1260.999 C 842.804 1260.999, 838.191 1261.286, 835.640 1261.636 L 831 1262.272 831 1292.164 L 831 1322.056 837.250 1321.551 C 840.688 1321.274, 848.675 1320.787, 855 1320.470 C 914.702 1317.476, 981.980 1298.012, 1038.377 1267.416 C 1150.178 1206.762, 1231.452 1102.514, 1260.893 982 C 1269.033 948.680, 1272.042 924.862, 1272.726 888.349 C 1273.462 849.093, 1271.259 824.390, 1263.915 789.500 C 1234.472 649.640, 1131.532 530.835, 992 475.677 C 947.739 458.181, 895.966 446.615, 852.500 444.513 C 845.900 444.193, 838.362 443.707, 835.750 443.432 L 831 442.931 831 472.894 M 875.500 715.880 C 861.652 719.536, 852.200 731.129, 851.228 745.649 C 850.308 759.406, 856.229 770.444, 868 776.916 C 874.094 780.267, 875.063 780.490, 883.500 780.495 C 890.622 780.499, 893.476 780.049, 897.176 778.339 C 903.822 775.267, 910.509 768.709, 913.689 762.143 C 916.008 757.352, 916.421 755.216, 916.421 748 C 916.421 740.784, 916.008 738.648, 913.689 733.857 C 910.480 727.232, 903.745 720.661, 897.176 717.749 C 892.123 715.509, 880.652 714.519, 875.500 715.880 M 971.500 716.339 C 964.865 718.537, 961.658 720.589, 956.886 725.691 C 950.879 732.113, 948.500 738.441, 948.500 748 C 948.500 757.708, 950.913 763.971, 957.225 770.645 C 964.110 777.925, 970.225 780.454, 981 780.480 C 988.121 780.497, 990.392 780.076, 995 777.887 C 1002.002 774.561, 1007.569 768.990, 1010.877 762 C 1014.228 754.917, 1014.536 743.187, 1011.573 735.503 C 1009.009 728.854, 1001.261 720.793, 994.702 717.950 C 988.368 715.205, 977.253 714.433, 971.500 716.339 M 1067.844 716.334 C 1052.946 721.900, 1045 732.906, 1045 747.973 C 1045 761.178, 1050.712 770.856, 1062.174 777.070 C 1068.046 780.254, 1069.146 780.500, 1077.500 780.500 C 1085.317 780.500, 1087.244 780.135, 1092.161 777.720 C 1098.984 774.369, 1104.337 768.690, 1107.799 761.128 C 1114.884 745.652, 1107.729 725.907, 1092.299 718.358 C 1085.653 715.106, 1073.764 714.122, 1067.844 716.334 M 497 928.396 C 497 935.559, 504.994 962.233, 512.165 979 C 537.144 1037.401, 578.987 1081.006, 619.129 1090.469 C 631.978 1093.498, 652.388 1091.992, 667.986 1086.865 C 689.388 1079.830, 719.048 1061.135, 734.888 1044.697 L 739.277 1040.143 735.888 1039.623 C 734.025 1039.337, 727.550 1038.608, 721.500 1038.002 C 686.478 1034.497, 643.102 1021.077, 604.832 1001.907 C 571.015 984.967, 527.632 955.431, 503.750 933.086 C 499.443 929.056, 497 927.359, 497 928.396 M 1104 936.732 C 1045.169 988.647, 969.530 1026.525, 903 1037.389 C 894.839 1038.722, 875.079 1041, 871.682 1041 C 868.178 1041, 891.420 1060.793, 906.241 1070.430 C 929.454 1085.525, 951.900 1093, 974.010 1093 C 987.861 1093, 996.784 1091.075, 1008.586 1085.542 C 1042.392 1069.693, 1074.917 1032.177, 1096.396 984.258 C 1104.491 966.200, 1113.936 935.466, 1112.846 930.734 C 1112.608 929.698, 1109.858 931.563, 1104 936.732 M 820 1188.401 L 820 1244.056 826.250 1243.552 C 829.688 1243.275, 837.225 1242.785, 843 1242.463 C 871.542 1240.871, 897.588 1232.928, 906.116 1223.215 C 908.989 1219.943, 909.185 1219.246, 908.822 1213.594 C 908.074 1201.956, 898.234 1186.227, 880.973 1169.081 C 862.602 1150.832, 836.941 1134.373, 825.082 1133.234 L 820 1132.746 820 1188.401 M 582.318 1297.718 C 575.650 1308.141, 563.062 1337.707, 562.662 1343.885 C 562.527 1345.969, 564.090 1347.534, 572 1353.239 C 585.857 1363.233, 606.097 1375.146, 625.085 1384.484 C 640.854 1392.240, 661.277 1401.014, 663.536 1401.004 C 664.106 1401.002, 665.836 1393.237, 667.381 1383.750 C 668.925 1374.263, 671.741 1358.625, 673.639 1349 C 675.537 1339.375, 677.182 1330.676, 677.295 1329.668 C 677.466 1328.137, 675.123 1327.123, 663 1323.485 C 638.596 1316.160, 613.114 1306.008, 595.137 1296.448 C 590.538 1294.001, 586.594 1292, 586.375 1292 C 586.155 1292, 584.329 1294.573, 582.318 1297.718 M 1035.500 1299.633 C 1020.318 1305.793, 980.493 1319.102, 963 1323.861 C 953.138 1326.544, 948.543 1328.237, 948.635 1329.153 C 948.709 1329.894, 950.581 1339.725, 952.796 1351 C 955.011 1362.275, 958.084 1379.263, 959.625 1388.750 C 961.166 1398.237, 962.779 1406, 963.209 1406 C 964.996 1406, 995.654 1394.671, 1010.500 1388.524 C 1025.517 1382.306, 1066.310 1362.688, 1070.320 1359.755 C 1072.048 1358.491, 1071.880 1357.698, 1067.020 1344.153 C 1061.854 1329.755, 1051.935 1305.602, 1048.409 1298.835 L 1046.500 1295.170 1035.500 1299.633 M 1089.753 1321.250 C 1099.862 1348.161, 1109.314 1401.737, 1114.055 1459 C 1114.670 1466.425, 1115.488 1474.075, 1115.874 1476 C 1116.481 1479.031, 1123.467 1485.840, 1168.037 1526.836 C 1196.342 1552.871, 1221.476 1575.934, 1223.891 1578.087 L 1228.283 1582.001 1224.710 1587.381 C 1222.745 1590.340, 1218.914 1597.203, 1216.196 1602.631 C 1192.013 1650.926, 1195.872 1698.444, 1226.500 1729.490 C 1243.907 1747.135, 1265.449 1756.023, 1290.708 1755.983 C 1304.563 1755.960, 1313.416 1754.064, 1323.988 1748.852 C 1340.440 1740.741, 1353.557 1724.113, 1360.156 1703 C 1362.373 1695.907, 1362.499 1694.048, 1362.475 1668.730 C 1362.454 1645.125, 1362.631 1642.034, 1363.975 1642.595 C 1368.525 1644.492, 1374.217 1645.153, 1390.584 1645.686 C 1415.691 1646.503, 1425.198 1644.340, 1440.128 1634.415 C 1463.257 1619.039, 1477.415 1586.971, 1475.630 1554 C 1473.379 1512.433, 1446.258 1481.317, 1406.747 1474.970 C 1396.220 1473.279, 1373.199 1474.264, 1361.770 1476.895 C 1342.670 1481.291, 1320.101 1490.422, 1300.755 1501.581 C 1293.988 1505.484, 1292.629 1505.945, 1291.211 1504.816 C 1290.302 1504.092, 1243.994 1460.412, 1188.304 1407.750 C 1132.615 1355.088, 1086.877 1312, 1086.665 1312 C 1086.452 1312, 1087.842 1316.162, 1089.753 1321.250 M 444 1410.656 C 389.275 1461.458, 343.925 1503.296, 343.221 1503.630 C 342.492 1503.975, 339.699 1502.130, 336.721 1499.336 C 317.023 1480.852, 291.691 1467.671, 268.074 1463.618 C 251.381 1460.753, 235.216 1462.092, 219.838 1467.615 C 185.337 1480.004, 159.863 1506.494, 151.252 1538.936 C 147.941 1551.409, 147.525 1572.997, 150.355 1585.500 C 155.984 1610.364, 172.407 1627.608, 196.700 1634.160 C 202.769 1635.797, 207.496 1636.272, 218 1636.298 C 232.822 1636.335, 240.924 1634.550, 255.343 1628.074 C 259.107 1626.383, 262.482 1625.001, 262.843 1625.002 C 263.204 1625.003, 263.540 1634.790, 263.589 1646.752 C 263.671 1666.986, 263.863 1669.195, 266.342 1678.491 C 273.083 1703.762, 285.767 1720.642, 305.410 1730.483 C 317.829 1736.705, 327.481 1739.001, 344.194 1739.711 C 359.710 1740.370, 369.581 1739.167, 380.500 1735.289 C 406.351 1726.106, 426.041 1701.102, 432.701 1669 C 434.598 1659.859, 433.942 1633.306, 431.560 1622.767 C 428.091 1607.421, 419.740 1590.825, 408.465 1576.871 C 403.982 1571.322, 403.071 1569.619, 403.994 1568.507 C 404.632 1567.739, 428.470 1546.335, 456.967 1520.943 L 508.781 1474.775 509.979 1465.138 C 515.149 1423.521, 526.041 1373.650, 538.060 1336.564 C 541.269 1326.663, 543.806 1318.500, 543.697 1318.425 C 543.589 1318.349, 498.725 1359.853, 444 1410.656 M 699.586 1335.679 C 698.622 1340.188, 688 1406.904, 688 1408.453 C 688 1410.012, 692.309 1411.410, 713 1416.567 C 737.551 1422.685, 768.149 1427.166, 795.250 1428.612 L 808 1429.292 808 1387.328 L 808 1345.363 785.444 1344.151 C 773.038 1343.484, 755.825 1342.059, 747.194 1340.984 C 731.451 1339.023, 704.725 1334.599, 701.769 1333.465 C 700.624 1333.025, 700.024 1333.634, 699.586 1335.679 M 910.500 1335.580 C 889.874 1339.573, 851.563 1343.972, 837.250 1343.991 L 831 1344 831 1386.500 L 831 1429 833.855 1429 C 846.203 1429, 879.849 1425.175, 901 1421.366 C 915.495 1418.755, 937.644 1413.689, 938.558 1412.775 C 938.974 1412.359, 927.946 1341.552, 926.484 1335.250 C 925.864 1332.580, 926.019 1332.577, 910.500 1335.580 M 552.532 1378.167 C 549.067 1388.009, 535.756 1464.090, 537.240 1465.573 C 538.102 1466.435, 561.719 1477.288, 573.240 1482.116 C 597.227 1492.168, 647.205 1509.354, 648.307 1507.929 C 648.490 1507.693, 651.015 1491.075, 653.919 1471 C 656.823 1450.925, 659.419 1433.114, 659.688 1431.420 L 660.177 1428.340 647.339 1423.541 C 619.626 1413.182, 591.800 1399.883, 568.180 1385.709 C 551.872 1375.923, 553.111 1376.520, 552.532 1378.167 M 1070.737 1392.607 C 1048.402 1403.892, 1011.620 1418.236, 983.367 1426.678 C 974.640 1429.286, 967.328 1431.534, 967.118 1431.675 C 966.907 1431.816, 969.037 1447.584, 971.851 1466.716 C 974.665 1485.847, 977.262 1504.088, 977.621 1507.250 C 978.074 1511.227, 978.711 1513, 979.688 1513 C 982.509 1513, 1010.780 1504.659, 1028.943 1498.468 C 1049.196 1491.564, 1069.282 1483.389, 1083.339 1476.330 L 1092.300 1471.829 1091.682 1459.665 C 1091.049 1447.220, 1089.055 1430.738, 1086.457 1416.500 C 1084.259 1404.444, 1080.866 1389.585, 1080.142 1388.839 C 1079.789 1388.476, 1075.557 1390.171, 1070.737 1392.607 M 683.499 1437.250 C 683.049 1438.535, 676.053 1488.171, 673.975 1504.822 C 673.335 1509.950, 673.013 1514.346, 673.259 1514.592 C 674.184 1515.518, 700.165 1520.956, 717.500 1523.852 C 745.710 1528.566, 779.909 1532, 798.645 1532 L 808 1532 808 1492.690 L 808 1453.381 787.255 1452.154 C 754.406 1450.212, 726.441 1446.085, 697.681 1438.937 C 684.168 1435.579, 684.088 1435.570, 683.499 1437.250 M 932.500 1440.059 C 920.589 1442.856, 891.399 1447.649, 875.500 1449.419 C 864.623 1450.630, 836.471 1452.928, 831.750 1452.990 C 831.337 1452.996, 831 1471.019, 831 1493.042 L 831 1533.083 838.250 1532.564 C 842.237 1532.279, 851.350 1531.787, 858.500 1531.472 C 882.735 1530.403, 913.203 1526.805, 940.214 1521.823 C 946.657 1520.635, 952.394 1519.374, 952.964 1519.022 C 954.094 1518.324, 952.268 1501.907, 947.011 1465.500 C 943.144 1438.713, 943 1437.982, 941.639 1438.091 C 941.012 1438.141, 936.900 1439.027, 932.500 1440.059 M 530.433 1500.615 C 533.173 1533.084, 534.438 1545.717, 537.078 1567 C 546.262 1641.029, 562.872 1715.449, 583.359 1774.353 C 588.663 1789.602, 589.600 1791.827, 590.337 1790.917 C 592.189 1788.626, 705.559 1654.175, 706.438 1653.227 C 707.365 1652.227, 719.213 1668.192, 761.918 1727.987 L 816.220 1804.018 823.360 1794.700 C 827.287 1789.575, 851.621 1757.612, 877.436 1723.670 C 903.250 1689.728, 924.723 1662.079, 925.154 1662.229 C 925.584 1662.378, 950.262 1691.975, 979.993 1728 C 1009.725 1764.025, 1034.399 1793.620, 1034.825 1793.767 C 1035.696 1794.066, 1045.089 1768.500, 1050.538 1751 C 1069.243 1690.924, 1085.296 1606.163, 1093.995 1521.553 C 1095.098 1510.824, 1096 1501.643, 1096 1501.151 C 1096 1500.659, 1088.688 1503.511, 1079.750 1507.490 C 1026.415 1531.230, 963.803 1548.288, 900.115 1556.428 C 851.620 1562.627, 796.477 1562.987, 746 1557.436 C 680.153 1550.195, 608.561 1530.133, 547.500 1501.810 C 539.250 1497.984, 531.904 1494.600, 531.176 1494.291 C 530.121 1493.843, 529.970 1495.125, 530.433 1500.615" stroke="none" fill="#ffffff" fill-rule="evenodd"/></svg>