<svg xmlns="http://www.w3.org/2000/svg" width="1970" height="1776" viewBox="0 0 1970 1776" version="1.1"><path d="M 212.645 57.250 C 201.346 85.964, 197.408 109.442, 198.270 142.954 C 199.519 191.521, 213.895 238.299, 243.770 291 C 261.270 321.870, 276.506 341.954, 304.081 370.500 C 315.770 382.600, 336.621 404.189, 350.417 418.475 C 364.213 432.761, 388.550 457.940, 404.500 474.429 C 420.450 490.918, 440.898 512.079, 449.940 521.454 C 478.779 551.357, 493.323 566.010, 493.746 565.588 C 493.971 565.362, 495.701 557.600, 497.590 548.339 C 499.479 539.077, 502.518 524.975, 504.345 517 L 507.667 502.500 497.585 492 C 492.041 486.225, 467.013 460.575, 441.968 435 C 416.923 409.425, 384.697 376.501, 370.354 361.835 C 340.699 331.512, 329.092 318.412, 314.303 298.575 C 288.631 264.141, 271.193 230.780, 260.642 195.918 C 249.756 159.946, 248.472 122.524, 257.172 94.729 C 258.338 91.005, 259.114 87.821, 258.896 87.654 C 258.678 87.486, 249.385 78.496, 238.245 67.675 C 227.105 56.854, 217.607 48, 217.138 48 C 216.669 48, 214.647 52.163, 212.645 57.250 M 1747.404 58.842 C 1742.401 64.704, 1734.654 73.815, 1730.189 79.089 L 1722.069 88.677 1724.130 94.089 C 1741.589 139.943, 1724.405 204.298, 1675.024 278 C 1635.436 337.086, 1580.432 398.519, 1495.750 478.227 C 1479.388 493.628, 1466 506.539, 1466 506.918 C 1466 507.297, 1467.596 512.308, 1469.547 518.054 C 1473.639 530.103, 1480 555.105, 1480 559.138 C 1480 560.647, 1480.376 562.114, 1480.835 562.398 C 1481.798 562.993, 1508.535 538.123, 1544.154 503.500 C 1664.720 386.308, 1737.550 293.121, 1766.502 219 C 1778.997 187.013, 1783.424 165.666, 1783.404 137.500 C 1783.390 117.433, 1781.481 104.725, 1775.917 87.672 C 1772.932 78.524, 1759.879 50.968, 1757.666 49.145 C 1756.844 48.468, 1753.814 51.332, 1747.404 58.842 M 526.630 689.789 C 525.969 690.860, 527.643 710.003, 529.578 723.500 C 535.672 766.006, 548.045 809.035, 564.631 845.401 C 591.642 904.625, 628.979 952.695, 677.057 990.146 C 732.809 1033.575, 803.723 1061.938, 886.500 1073.917 C 940.783 1081.772, 1003.503 1082.677, 1057.500 1076.384 C 1219.697 1057.481, 1337.270 978.137, 1405.858 841.294 C 1424.588 803.926, 1441.556 751.893, 1448.523 710.459 C 1449.959 701.919, 1450.986 694.167, 1450.806 693.233 C 1450.504 691.663, 1447.533 691.559, 1411.490 691.863 C 1390.045 692.044, 1372.370 692.317, 1372.211 692.468 C 1372.052 692.620, 1370.390 698.552, 1368.518 705.650 C 1357.972 745.629, 1337.905 781.232, 1311.357 807.065 C 1285.963 831.776, 1260.630 845.182, 1225.058 852.731 C 1213.645 855.154, 1210.448 855.401, 1190 855.448 C 1171.637 855.491, 1165.937 855.158, 1159 853.640 C 1142.391 850.005, 1124.100 842.716, 1110.934 834.486 C 1097.736 826.234, 1081.688 811.411, 1069.810 796.500 C 1049.905 771.512, 1031.324 731.452, 1022.611 694.738 L 1021.956 691.976 983.852 692.238 L 945.749 692.500 943.927 699.500 C 936.031 729.832, 918.826 765.671, 900.960 789 C 891.657 801.148, 876.001 816.710, 864.500 825.240 C 818.625 859.269, 752.506 865.432, 701.437 840.441 C 654.304 817.375, 614.489 761.253, 597.015 693.250 L 595.923 689 561.520 689 C 542.599 689, 526.898 689.355, 526.630 689.789 M 975.500 884.022 C 944.826 890.179, 926.907 921.165, 937.021 950.562 C 944.662 972.771, 968.134 987.240, 991.216 983.969 C 1022.335 979.560, 1041.561 950.119, 1033.145 919.766 C 1026.334 895.204, 1000.279 879.048, 975.500 884.022 M 128 1017.263 L 128 1032.525 142.937 1047.437 C 156.620 1061.097, 158.026 1062.230, 159.686 1060.925 C 162.290 1058.878, 221 1002.807, 221 1002.367 C 221 1002.165, 200.075 1002, 174.500 1002 L 128 1002 128 1017.263 M 317.133 1021.172 C 327.235 1031.716, 340.338 1045.329, 346.251 1051.422 L 357.003 1062.500 385.463 1033.500 C 401.116 1017.550, 413.941 1003.938, 413.962 1003.250 C 413.992 1002.264, 401.830 1002, 356.383 1002 L 298.765 1002 317.133 1021.172 M 509.815 1019.750 C 518.641 1028.963, 532.327 1042.928, 540.227 1050.784 L 554.593 1065.068 575.546 1042.827 C 587.071 1030.594, 600.264 1016.629, 604.864 1011.793 L 613.227 1003 553.497 1003 L 493.767 1003 509.815 1019.750 M 1879.790 1006.951 L 1868.080 1007.500 1863.165 1017.500 C 1838.320 1068.047, 1791.157 1102.147, 1717.500 1122.821 L 1704.500 1126.470 1487.250 1126.748 C 1367.763 1126.901, 1270 1127.185, 1270 1127.379 C 1270 1127.573, 1271.144 1132.800, 1272.543 1138.994 C 1273.941 1145.189, 1275.752 1155.011, 1276.568 1160.821 C 1277.383 1166.631, 1278.168 1171.501, 1278.311 1171.645 C 1278.455 1171.788, 1375.081 1172.216, 1493.036 1172.595 C 1721.583 1173.330, 1717.450 1173.397, 1746.599 1168.487 C 1818.065 1156.448, 1872.723 1124.928, 1905.795 1076.683 C 1913.181 1065.909, 1922.616 1047.798, 1927.470 1035.078 C 1930.478 1027.196, 1935.997 1008.865, 1935.999 1006.750 C 1936 1005.934, 1898.642 1006.067, 1879.790 1006.951 M 220.351 1047.900 L 182.201 1085.711 221.010 1124.510 L 259.818 1163.309 276.204 1146.404 C 316.694 1104.633, 335 1085.464, 335 1084.838 C 335 1084.064, 260.330 1010.608, 259.225 1010.294 C 258.826 1010.181, 241.333 1027.103, 220.351 1047.900 M 414.248 1047.815 L 378.173 1084.631 400.467 1108.065 C 412.729 1120.954, 429.453 1138.333, 437.631 1146.684 C 452.379 1161.745, 452.541 1161.873, 457.565 1162.365 L 462.630 1162.862 497.565 1125.836 C 516.779 1105.471, 533.114 1087.957, 533.864 1086.916 C 535.120 1085.173, 532.343 1082.077, 498.971 1048.011 L 462.712 1011 456.518 1011 L 450.323 1011 414.248 1047.815 M 611.078 1051.422 L 575.667 1086.844 616.008 1127.922 C 639.672 1152.017, 657.098 1169, 658.159 1169 C 659.302 1169, 668.009 1159.348, 681.837 1142.750 C 703.302 1116.987, 703.759 1116.342, 706.501 1108 C 709.140 1099.970, 713.205 1088.981, 717.855 1077.312 L 719.922 1072.124 707.211 1063.091 C 691.009 1051.577, 674.679 1038.872, 659.646 1026.084 C 653.126 1020.538, 647.499 1016, 647.141 1016 C 646.782 1016, 630.554 1031.940, 611.078 1051.422 M 128 1081.212 L 128 1091.425 132.943 1086.556 L 137.887 1081.687 133.322 1076.343 C 130.811 1073.404, 128.587 1071, 128.379 1071 C 128.170 1071, 128 1075.596, 128 1081.212 M 755.340 1077.753 C 746.042 1098.727, 732.069 1140.684, 733.571 1143.116 C 735.030 1145.476, 768.291 1159.132, 790.523 1166.498 C 806.364 1171.747, 825.162 1177.172, 825.688 1176.646 C 825.881 1176.452, 827.811 1165.991, 829.978 1153.397 C 832.144 1140.804, 835.491 1122.868, 837.415 1113.540 C 839.339 1104.212, 840.821 1096.526, 840.707 1096.460 C 840.593 1096.393, 835.775 1095.300, 830 1094.030 C 810.156 1089.667, 778.854 1080.216, 760.694 1073.105 C 757.940 1072.027, 757.839 1072.115, 755.340 1077.753 M 1205 1075.083 C 1193.404 1079.705, 1165.243 1088.382, 1147.057 1092.936 C 1138.013 1095.200, 1130.540 1097.154, 1130.451 1097.277 C 1130.361 1097.399, 1131.556 1106.050, 1133.106 1116.500 C 1134.657 1126.950, 1137.091 1144.500, 1138.515 1155.500 C 1139.940 1166.500, 1141.305 1176.475, 1141.551 1177.666 C 1141.992 1179.811, 1142.201 1179.780, 1162.748 1174.494 C 1191.998 1166.970, 1237.319 1152.911, 1238.503 1150.994 C 1239.179 1149.901, 1234.748 1127.259, 1231.459 1115 C 1226.192 1095.367, 1216.888 1072.727, 1213.909 1072.296 C 1213.134 1072.184, 1209.125 1073.438, 1205 1075.083 M 865.048 1118.250 C 861.022 1147.499, 857 1179.397, 857 1182.074 C 857 1184.653, 857.222 1184.737, 869.750 1186.926 C 897.757 1191.820, 926.328 1195.027, 955.090 1196.504 L 966.681 1197.099 967.340 1178.889 C 967.703 1168.874, 968 1149.801, 968 1136.506 L 968 1112.332 948.352 1111.117 C 926.534 1109.768, 900.879 1107, 882.228 1103.984 C 875.479 1102.893, 869.355 1102, 868.620 1102 C 867.652 1102, 866.669 1106.474, 865.048 1118.250 M 1081.500 1105.531 C 1061.973 1108.509, 1038.370 1110.811, 1018.902 1111.636 L 1003.305 1112.297 1002.652 1130.309 C 1002.294 1140.215, 1002 1159.323, 1002 1172.770 L 1002 1197.220 1015.750 1196.569 C 1033.425 1195.733, 1051.063 1194.326, 1067.874 1192.412 C 1082.079 1190.794, 1111.098 1186.236, 1111.826 1185.507 C 1112.426 1184.908, 1107.463 1143.278, 1104.190 1121.455 C 1101.016 1100.291, 1103.666 1102.151, 1081.500 1105.531 M 144.250 1123.090 L 127 1140.078 127 1154.039 L 127 1168 173.721 1168 L 220.442 1168 214.411 1161.750 C 211.094 1158.313, 199.673 1146.275, 189.031 1135 C 178.390 1123.725, 167.842 1112.611, 165.592 1110.301 L 161.500 1106.103 144.250 1123.090 M 326.829 1137.339 L 297.157 1167.678 336.829 1168.337 C 358.648 1168.700, 386.172 1168.998, 397.994 1168.999 L 419.488 1169 388.500 1138 C 371.457 1120.950, 357.284 1107, 357.006 1107 C 356.728 1107, 343.148 1120.653, 326.829 1137.339 M 530.931 1131.768 C 517.418 1145.370, 503.737 1159.313, 500.529 1162.750 L 494.696 1169 555.927 1169 L 617.158 1169 586.829 1138.002 C 570.148 1120.953, 556.275 1107.011, 556 1107.020 C 555.725 1107.028, 544.444 1118.165, 530.931 1131.768 M 725.619 1176.808 C 724.269 1178.992, 720.896 1212.884, 720.713 1226.116 L 720.500 1241.437 737.647 1250.062 C 747.077 1254.806, 762.827 1261.855, 772.647 1265.727 C 790.978 1272.954, 812.834 1280.500, 813.502 1279.832 C 813.708 1279.625, 814.364 1272.941, 814.958 1264.978 C 815.875 1252.704, 817.598 1236.667, 820.602 1212.474 L 821.226 1207.448 811.363 1205.085 C 791.594 1200.348, 758.561 1189.247, 731.290 1178.176 C 728.425 1177.013, 725.873 1176.397, 725.619 1176.808 M 1232.500 1189.187 C 1217.838 1194.062, 1189.730 1201.523, 1169.448 1205.923 C 1159.027 1208.184, 1149.425 1210.276, 1148.110 1210.571 C 1145.818 1211.086, 1145.746 1211.359, 1146.351 1217.304 C 1150.785 1260.946, 1153 1281.334, 1153.344 1281.678 C 1153.908 1282.241, 1184.304 1274.095, 1204.286 1268.026 C 1217.578 1263.988, 1233.670 1258.402, 1243.188 1254.522 C 1245.873 1253.427, 1246.245 1245.844, 1245.030 1217 C 1243.939 1191.124, 1243.450 1185.899, 1242.142 1186.097 C 1241.789 1186.150, 1237.450 1187.541, 1232.500 1189.187 M 852.573 1217.936 C 851.168 1227.212, 844.938 1288.239, 845.351 1288.675 C 845.443 1288.772, 852.134 1290.227, 860.221 1291.908 C 876.615 1295.318, 903.432 1299.321, 921.187 1301.009 C 934.488 1302.274, 965.957 1303.712, 966.584 1303.083 C 966.813 1302.854, 967 1285.507, 967 1264.533 L 967 1226.400 944.595 1225.181 C 918.750 1223.775, 894.614 1221.178, 870.241 1217.181 L 853.113 1214.373 852.573 1217.936 M 1105 1217.586 C 1080.444 1221.507, 1029.447 1225.987, 1009.250 1225.996 L 1002 1226 1002 1264.500 L 1002 1303 1007.421 1303 C 1015.823 1303, 1048.757 1300.186, 1066.500 1297.951 C 1083.342 1295.830, 1117.039 1290.295, 1117.812 1289.522 C 1118.309 1289.024, 1116.312 1236.200, 1115.325 1223.750 C 1114.988 1219.487, 1114.439 1216.052, 1114.106 1216.115 C 1113.773 1216.178, 1109.675 1216.840, 1105 1217.586 M 650 1317.199 C 609.782 1355.982, 603.060 1362.470, 571.834 1392.653 L 557.192 1406.806 575.846 1425.978 L 594.500 1445.150 649.398 1390.174 L 704.296 1335.197 701.215 1324.349 C 697.575 1311.535, 695.395 1301.167, 693.498 1287.650 C 692.737 1282.222, 691.975 1277.645, 691.807 1277.481 C 691.638 1277.316, 672.825 1295.189, 650 1317.199 M 1276.630 1288.038 C 1275.875 1300.476, 1271.906 1325.302, 1269.024 1335.615 L 1267.101 1342.500 1273.887 1349.500 C 1277.619 1353.350, 1299.036 1375.625, 1321.479 1399 C 1343.922 1422.375, 1363.696 1442.967, 1365.420 1444.761 L 1368.555 1448.022 1388.437 1427.427 L 1408.318 1406.832 1381.409 1379.850 C 1366.609 1365.010, 1337.129 1335.809, 1315.899 1314.959 L 1277.298 1277.049 1276.630 1288.038 M 724.595 1282.750 C 726.055 1290.739, 734.073 1318.234, 738.537 1330.563 C 769.498 1416.063, 826.131 1473.098, 900.234 1493.408 C 940.513 1504.447, 983.300 1505.322, 1028.380 1496.029 C 1132.395 1474.585, 1222.876 1398.033, 1237.856 1318.800 C 1240.629 1304.133, 1241.617 1289, 1239.802 1289 C 1239.040 1289, 1232.360 1291.048, 1224.958 1293.551 C 1128.910 1326.027, 1020.726 1338.854, 922.130 1329.457 C 854.351 1322.996, 790.724 1307.511, 737.311 1284.477 C 730.327 1281.464, 724.454 1279, 724.261 1279 C 724.067 1279, 724.218 1280.688, 724.595 1282.750" stroke="none" fill="#ffffff" fill-rule="evenodd"/><path d="M 197.392 136 C 197.392 143.425, 197.549 146.463, 197.742 142.750 C 197.934 139.037, 197.934 132.963, 197.742 129.250 C 197.549 125.537, 197.392 128.575, 197.392 136 M 367 358.500 C 375.512 367.025, 382.701 374, 382.976 374 C 383.251 374, 376.512 367.025, 368 358.500 C 359.488 349.975, 352.299 343, 352.024 343 C 351.749 343, 358.488 349.975, 367 358.500 M 409.500 402 C 418.287 410.800, 425.702 418, 425.977 418 C 426.252 418, 419.287 410.800, 410.500 402 C 401.713 393.200, 394.298 386, 394.023 386 C 393.748 386, 400.713 393.200, 409.500 402 M 456.500 450 C 462.531 456.050, 467.691 461, 467.966 461 C 468.241 461, 463.531 456.050, 457.500 450 C 451.469 443.950, 446.309 439, 446.034 439 C 445.759 439, 450.469 443.950, 456.500 450 M 1591.500 456 C 1584.917 462.600, 1579.756 468, 1580.031 468 C 1580.306 468, 1585.917 462.600, 1592.500 456 C 1599.083 449.400, 1604.244 444, 1603.969 444 C 1603.694 444, 1598.083 449.400, 1591.500 456 M 1542.985 504.750 L 1530.500 517.500 1543.250 505.015 C 1555.093 493.418, 1556.453 492, 1555.735 492 C 1555.589 492, 1549.852 497.738, 1542.985 504.750 M 526.653 688.750 C 526.398 689.163, 536.159 689.385, 548.344 689.245 C 590.395 688.761, 594.389 688.432, 560.809 688.216 C 542.279 688.097, 526.909 688.337, 526.653 688.750 M 945.661 691.738 C 945.402 692.157, 962.327 692.377, 983.271 692.226 C 1013.225 692.011, 1021.545 692.224, 1022.252 693.226 C 1022.933 694.190, 1023.053 694.135, 1022.743 693 C 1022.390 691.706, 1017.102 691.464, 984.233 691.238 C 963.278 691.094, 945.921 691.319, 945.661 691.738 M 1371.667 691.667 C 1371.300 692.033, 1371.007 692.821, 1371.015 693.417 C 1371.025 694.069, 1371.343 694.008, 1371.816 693.264 C 1372.409 692.330, 1380.931 691.959, 1406.551 691.750 L 1440.500 691.472 1406.417 691.236 C 1387.671 691.106, 1372.033 691.300, 1371.667 691.667 M 141.811 1001.748 C 149.681 1001.917, 162.281 1001.917, 169.811 1001.747 C 177.340 1001.578, 170.900 1001.439, 155.500 1001.440 C 140.100 1001.440, 133.940 1001.579, 141.811 1001.748 M 493 1002.772 C 493 1003.197, 496.938 1007.359, 501.750 1012.022 L 510.500 1020.500 502.037 1011.765 L 493.573 1003.029 525.037 1002.750 L 556.500 1002.470 524.750 1002.235 C 507.288 1002.106, 493 1002.347, 493 1002.772 M 35.665 1013.750 C 25.136 1056.601, 24.370 1102.595, 33.488 1144.460 C 34.810 1150.532, 36.722 1158.200, 37.737 1161.500 L 39.581 1167.500 68.791 1167.765 L 98 1168.030 98 1085.515 L 98 1003 68.153 1003 L 38.307 1003 35.665 1013.750 M 1867.651 1006.750 C 1867.394 1007.163, 1870.855 1007.379, 1875.342 1007.231 C 1890.043 1006.745, 1891.704 1006.352, 1879.809 1006.175 C 1873.379 1006.079, 1867.908 1006.337, 1867.651 1006.750 M 272.500 1023 C 280.185 1030.700, 286.698 1037, 286.973 1037 C 287.248 1037, 281.185 1030.700, 273.500 1023 C 265.815 1015.300, 259.302 1009, 259.027 1009 C 258.752 1009, 264.815 1015.300, 272.500 1023 M 443.971 1016.750 L 437.500 1023.500 444 1017.297 C 450.299 1011.286, 450.685 1011.083, 456.500 1010.736 L 462.500 1010.378 456.471 1010.189 L 450.442 1010 443.971 1016.750 M 610.995 1050.750 L 575.500 1086.500 611.135 1051.120 C 635.336 1027.092, 647.178 1015.992, 648.040 1016.525 C 648.867 1017.036, 649.061 1016.907, 648.595 1016.155 C 648.203 1015.520, 647.569 1015, 647.186 1015 C 646.803 1015, 630.517 1031.088, 610.995 1050.750 M 210.488 1057.250 L 194.500 1073.500 210.750 1057.512 C 219.688 1048.718, 227 1041.406, 227 1041.262 C 227 1040.548, 225.342 1042.153, 210.488 1057.250 M 405.985 1055.750 L 393.500 1068.500 406.250 1056.015 C 418.093 1044.418, 419.453 1043, 418.735 1043 C 418.589 1043, 412.852 1048.737, 405.985 1055.750 M 505.982 1055.250 C 511.747 1061.162, 516.585 1066, 516.732 1066 C 517.454 1066, 516.235 1064.718, 506.250 1054.982 L 495.500 1044.500 505.982 1055.250 M 364.264 1055.218 L 357.046 1062.437 353.273 1058.988 L 349.500 1055.538 353.254 1059.507 L 357.009 1063.475 364.746 1055.738 C 369.002 1051.482, 372.259 1048, 371.983 1048 C 371.708 1048, 368.234 1051.248, 364.264 1055.218 M 127 1081 C 127 1087.050, 127.354 1092, 127.788 1092 C 128.221 1092, 130.808 1089.638, 133.538 1086.750 L 138.500 1081.500 133.191 1086.500 L 127.882 1091.500 128.191 1080.748 C 128.361 1074.834, 128.162 1069.997, 127.750 1069.998 C 127.338 1069.999, 127 1074.950, 127 1081 M 205 1109.500 C 217.916 1122.425, 228.709 1133, 228.984 1133 C 229.259 1133, 218.916 1122.425, 206 1109.500 C 193.084 1096.575, 182.291 1086, 182.016 1086 C 181.741 1086, 192.084 1096.575, 205 1109.500 M 604.500 1117 C 614.389 1126.900, 622.704 1135, 622.979 1135 C 623.254 1135, 615.389 1126.900, 605.500 1117 C 595.611 1107.100, 587.296 1099, 587.021 1099 C 586.746 1099, 594.611 1107.100, 604.500 1117 M 145.500 1121 C 137.264 1129.250, 130.750 1136, 131.025 1136 C 131.300 1136, 138.264 1129.250, 146.500 1121 C 154.736 1112.750, 161.250 1106, 160.975 1106 C 160.700 1106, 153.736 1112.750, 145.500 1121 M 303.982 1117.750 L 293.500 1128.500 304.250 1118.018 C 314.235 1108.282, 315.454 1107, 314.732 1107 C 314.585 1107, 309.747 1111.838, 303.982 1117.750 M 1002.385 1124 C 1002.385 1130.875, 1002.545 1133.688, 1002.740 1130.250 C 1002.936 1126.813, 1002.936 1121.188, 1002.740 1117.750 C 1002.545 1114.313, 1002.385 1117.125, 1002.385 1124 M 392 1141.500 C 407.117 1156.625, 419.711 1169, 419.986 1169 C 420.261 1169, 408.117 1156.625, 393 1141.500 C 377.883 1126.375, 365.289 1114, 365.014 1114 C 364.739 1114, 376.883 1126.375, 392 1141.500 M 324.984 1138.750 L 313.500 1150.500 325.250 1139.016 C 331.712 1132.700, 337 1127.413, 337 1127.266 C 337 1126.546, 335.650 1127.836, 324.984 1138.750 M 585.982 1137.250 C 591.747 1143.162, 596.585 1148, 596.732 1148 C 597.454 1148, 596.235 1146.718, 586.250 1136.982 L 575.500 1126.500 585.982 1137.250 M 275.481 1147.250 L 265.500 1157.500 275.750 1147.519 C 281.387 1142.029, 286 1137.417, 286 1137.269 C 286 1136.545, 284.752 1137.730, 275.481 1147.250 M 247.500 1152 C 252.979 1157.500, 257.687 1162, 257.962 1162 C 258.237 1162, 253.979 1157.500, 248.500 1152 C 243.021 1146.500, 238.313 1142, 238.038 1142 C 237.763 1142, 242.021 1146.500, 247.500 1152 M 647.479 1160.750 C 652.418 1165.838, 657.177 1170, 658.055 1170 C 658.933 1170, 660.742 1168.763, 662.076 1167.250 L 664.500 1164.500 661.936 1166.750 C 660.525 1167.987, 658.734 1169, 657.955 1169 C 657.177 1169, 652.481 1165.063, 647.520 1160.250 L 638.500 1151.500 647.479 1160.750 M 213.959 1161.238 L 220.419 1167.976 181.459 1168.250 L 142.500 1168.524 181.750 1168.762 C 203.338 1168.893, 221 1168.650, 221 1168.221 C 221 1167.793, 217.963 1164.530, 214.250 1160.971 L 207.500 1154.500 213.959 1161.238 M 309.250 1168.748 C 316.813 1168.917, 329.188 1168.917, 336.750 1168.748 C 344.313 1168.578, 338.125 1168.439, 323 1168.439 C 307.875 1168.439, 301.688 1168.578, 309.250 1168.748 M 1277.336 1170 L 1277.500 1172.500 1361 1172.509 L 1444.500 1172.517 1361.319 1172.253 L 1278.138 1171.989 1277.655 1169.744 C 1277.232 1167.777, 1277.193 1167.808, 1277.336 1170 M 572.812 1169.748 C 581.233 1169.916, 594.733 1169.915, 602.812 1169.748 C 610.890 1169.580, 604 1169.443, 587.500 1169.443 C 571 1169.444, 564.390 1169.581, 572.812 1169.748 M 966.995 1185.204 C 966.723 1192.191, 966.852 1197.553, 967.283 1197.120 C 967.714 1196.688, 967.937 1190.971, 967.779 1184.417 L 967.491 1172.500 966.995 1185.204 M 1663.811 1173.748 C 1671.681 1173.917, 1684.281 1173.917, 1691.811 1173.747 C 1699.340 1173.578, 1692.900 1173.439, 1677.500 1173.440 C 1662.100 1173.440, 1655.940 1173.579, 1663.811 1173.748 M 967.400 1240.500 C 967.401 1248.750, 967.556 1251.992, 967.744 1247.704 C 967.932 1243.417, 967.931 1236.667, 967.742 1232.704 C 967.552 1228.742, 967.399 1232.250, 967.400 1240.500 M 1001.455 1264.500 C 1001.455 1285.950, 1001.587 1294.583, 1001.749 1283.684 C 1001.911 1272.785, 1001.910 1255.235, 1001.748 1244.684 C 1001.587 1234.133, 1001.454 1243.050, 1001.455 1264.500 M 1489.156 1377.652 C 1410.145 1456.111, 1329.779 1535.958, 1310.565 1555.089 L 1275.631 1589.873 1318.966 1632.686 C 1342.801 1656.234, 1362.854 1675.500, 1363.529 1675.500 C 1364.204 1675.500, 1416.632 1622.850, 1480.035 1558.500 C 1543.439 1494.150, 1622.264 1414.198, 1655.202 1380.829 L 1715.090 1320.158 1674.417 1277.579 C 1652.047 1254.160, 1633.535 1235, 1633.278 1235 C 1633.022 1235, 1568.166 1299.194, 1489.156 1377.652 M 295.898 1276.529 C 273.129 1298.950, 254.141 1317.610, 253.702 1317.995 C 253.063 1318.556, 475.081 1544.024, 582.041 1651.435 L 605.875 1675.370 635.188 1646.836 C 651.309 1631.142, 670.575 1612.438, 678 1605.272 L 691.500 1592.242 615 1515.385 C 522.662 1422.616, 393.300 1292.417, 360.891 1259.631 L 337.296 1235.762 295.898 1276.529 M 1296.500 1296 C 1306.939 1306.450, 1315.705 1315, 1315.980 1315 C 1316.255 1315, 1307.939 1306.450, 1297.500 1296 C 1287.061 1285.550, 1278.295 1277, 1278.020 1277 C 1277.745 1277, 1286.061 1285.550, 1296.500 1296 M 981.250 1332.742 C 984.962 1332.934, 991.038 1332.934, 994.750 1332.742 C 998.462 1332.549, 995.425 1332.392, 988 1332.392 C 980.575 1332.392, 977.538 1332.549, 981.250 1332.742 M 649.518 1389.743 L 594.535 1444.985 587.518 1438.243 L 580.500 1431.500 587.486 1438.763 L 594.472 1446.026 649.944 1390.554 C 680.453 1360.045, 705.210 1334.951, 704.958 1334.791 C 704.706 1334.631, 679.758 1359.359, 649.518 1389.743 M 1387 1385.500 C 1398.815 1397.325, 1408.708 1407, 1408.983 1407 C 1409.258 1407, 1399.815 1397.325, 1388 1385.500 C 1376.185 1373.675, 1366.292 1364, 1366.017 1364 C 1365.742 1364, 1375.185 1373.675, 1387 1385.500 M 1297.500 1375 C 1302.979 1380.500, 1307.687 1385, 1307.962 1385 C 1308.237 1385, 1303.979 1380.500, 1298.500 1375 C 1293.021 1369.500, 1288.313 1365, 1288.038 1365 C 1287.763 1365, 1292.021 1369.500, 1297.500 1375 M 1393.984 1421.750 L 1382.500 1433.500 1394.250 1422.016 C 1400.713 1415.700, 1406 1410.413, 1406 1410.266 C 1406 1409.546, 1404.650 1410.836, 1393.984 1421.750 M 1565.077 1523.018 L 1507.787 1581.036 1527.312 1601.268 C 1538.051 1612.396, 1557.870 1632.750, 1571.354 1646.500 L 1595.871 1671.500 1653.685 1613.111 C 1685.483 1580.997, 1711.668 1554.279, 1711.874 1553.739 C 1712.312 1552.588, 1625.022 1465, 1623.438 1465 C 1622.849 1465, 1596.586 1491.108, 1565.077 1523.018 M 323.500 1488.185 C 311.400 1499.790, 292.725 1517.722, 282 1528.035 C 271.275 1538.347, 261.415 1547.661, 260.089 1548.732 L 257.679 1550.679 314.032 1609.589 C 345.026 1641.990, 370.637 1668.613, 370.945 1668.751 C 371.254 1668.889, 391.753 1648.752, 416.498 1624.002 C 451.142 1589.352, 461.262 1578.683, 460.495 1577.619 C 459.182 1575.796, 347.015 1467.561, 346.160 1467.292 C 345.797 1467.178, 335.600 1476.580, 323.500 1488.185 M 211.250 1599.590 C 200.113 1610.357, 191 1619.711, 191 1620.375 C 191 1622.206, 200.494 1637.347, 208.144 1647.714 C 226.849 1673.065, 257.596 1703.406, 291.426 1729.895 L 302.147 1738.290 323.323 1716.474 C 334.971 1704.475, 344.500 1694.347, 344.500 1693.968 C 344.500 1693.281, 232.515 1579.994, 231.849 1580.006 C 231.657 1580.010, 222.387 1588.823, 211.250 1599.590 M 1678.673 1639.050 C 1646.953 1671.059, 1621.021 1697.530, 1621.047 1697.874 C 1621.073 1698.218, 1630.643 1708.330, 1642.315 1720.344 L 1663.535 1742.188 1678.518 1732.149 C 1726.409 1700.061, 1761.141 1664.516, 1777.625 1630.724 L 1780.442 1624.948 1758.394 1602.900 L 1736.347 1580.852 1678.673 1639.050" stroke="none" fill="#f0d21a" fill-rule="evenodd"/><path d="M 203.921 10.679 C 195.495 23.522, 183.798 47.126, 178.187 62.609 C 159.903 113.054, 159.732 166.295, 177.671 222.500 C 197.328 284.086, 234.464 344.245, 296.182 414.485 C 326.530 449.023, 369.465 491.450, 437 553.637 C 459.562 574.412, 478.722 594.040, 483.234 601 L 486.800 606.500 487.336 632.500 C 488.645 696.068, 498.976 756.783, 518.474 815.500 C 526.955 841.040, 531.450 852.561, 540.391 871.673 C 557.729 908.735, 579.970 944.102, 598.599 964.237 L 602.081 968 312.144 968 L 22.208 968 18.218 979.250 C 10.701 1000.448, 6.272 1017.791, 2.863 1039.381 C -0.141 1058.407, -0.863 1097.674, 1.453 1116.083 C 4.935 1143.753, 11.063 1164.887, 21.763 1186.127 L 28.500 1199.500 170.781 1200 L 313.063 1200.500 289.465 1223 C 276.487 1235.375, 258.955 1252.025, 250.505 1260 C 216.709 1291.898, 198.484 1309.358, 198.175 1310.133 C 197.997 1310.581, 210.400 1323.672, 225.738 1339.224 C 241.076 1354.776, 263.942 1378.075, 276.551 1391 C 289.160 1403.925, 306.359 1421.507, 314.771 1430.072 L 330.065 1445.644 289.283 1485.545 C 266.852 1507.490, 232.075 1541.669, 212 1561.497 C 191.925 1581.326, 170.346 1602.565, 164.046 1608.695 L 152.593 1619.840 157.926 1628.670 C 171.318 1650.845, 193.424 1679.227, 212.933 1699.293 C 233.896 1720.855, 250.141 1734.315, 274.155 1750.021 C 286.590 1758.153, 308.079 1769.518, 309.772 1768.857 C 310.276 1768.661, 349.345 1730.832, 396.594 1684.792 L 482.500 1601.085 504.560 1623.292 C 516.693 1635.507, 544.019 1663.275, 565.284 1685 L 603.949 1724.500 668.974 1659.503 C 704.738 1623.754, 734 1594.141, 734 1593.695 C 734 1593.249, 709.363 1564.750, 679.250 1530.365 C 649.138 1495.979, 624.366 1467.477, 624.202 1467.027 C 623.921 1466.257, 640.187 1451.002, 697.921 1397.893 L 722.496 1375.286 726.787 1383.317 C 738.423 1405.094, 754.525 1426.441, 774.500 1446.572 C 791.569 1463.773, 801.180 1471.750, 819 1483.502 C 862.689 1512.316, 908.790 1526.305, 964.698 1527.713 C 1035.629 1529.500, 1096.945 1512.225, 1152 1474.942 C 1183.745 1453.445, 1216.745 1418.666, 1235.883 1386.539 L 1242.192 1375.948 1248.581 1381.724 C 1252.095 1384.901, 1274.956 1406.400, 1299.383 1429.500 L 1343.796 1471.500 1284.898 1530.503 C 1252.504 1562.955, 1226 1590.033, 1226 1590.676 C 1226 1591.319, 1233.088 1598.561, 1241.750 1606.769 C 1293.153 1655.477, 1357.102 1715.436, 1358.035 1715.801 C 1358.459 1715.966, 1363.698 1711.466, 1369.677 1705.801 C 1375.656 1700.135, 1390.411 1686.275, 1402.466 1675 C 1414.520 1663.725, 1432.060 1647.261, 1441.442 1638.413 C 1470.243 1611.252, 1483.477 1599.001, 1484.016 1599 C 1484.299 1599, 1491.949 1606.770, 1501.016 1616.267 C 1510.082 1625.764, 1540.675 1657.782, 1569 1687.417 C 1597.325 1717.052, 1627.857 1749.107, 1636.849 1758.650 C 1648.182 1770.677, 1653.857 1776, 1655.349 1775.999 C 1660.026 1775.998, 1692.312 1756.028, 1712.172 1740.852 C 1733.968 1724.196, 1757.402 1701.153, 1773.472 1680.572 C 1784.600 1666.322, 1798.283 1645.119, 1805.459 1631.007 C 1812.012 1618.119, 1812.119 1617.785, 1810.373 1615.666 C 1809.392 1614.475, 1802.916 1607.650, 1795.983 1600.500 C 1789.050 1593.350, 1779.157 1583, 1773.998 1577.500 C 1763.152 1565.937, 1708.856 1509.071, 1689.009 1488.490 C 1681.579 1480.785, 1669.083 1467.672, 1661.240 1459.351 L 1646.979 1444.221 1663.137 1426.360 C 1672.025 1416.537, 1683.426 1404, 1688.475 1398.500 C 1693.524 1393, 1702.569 1383.054, 1708.577 1376.398 C 1714.585 1369.742, 1727.712 1355.237, 1737.750 1344.165 C 1747.787 1333.093, 1756 1323.829, 1756 1323.578 C 1756 1323.073, 1749.592 1315.581, 1708.500 1268.042 C 1693.100 1250.226, 1675.247 1229.541, 1668.826 1222.075 L 1657.152 1208.500 1670.326 1207.823 C 1709.519 1205.809, 1734.766 1202.927, 1760.649 1197.513 C 1819.757 1185.150, 1864.121 1164.364, 1901.397 1131.568 C 1918.436 1116.577, 1937.589 1090.816, 1948.940 1067.619 C 1962.797 1039.302, 1969.985 1008.914, 1969.995 978.613 L 1970 964.727 1668 965.193 C 1501.900 965.449, 1366 965.498, 1366 965.302 C 1366 965.106, 1370.722 959.339, 1376.493 952.485 C 1415.008 906.748, 1443.581 855.750, 1463.049 798 C 1475.206 761.940, 1481.871 728.838, 1485.073 688.628 C 1486.205 674.414, 1485.757 620.944, 1484.401 608.500 L 1483.857 603.500 1497.649 592 C 1563.648 536.971, 1632.400 470.131, 1679.202 415.496 C 1726.286 360.532, 1762.134 306.825, 1784.372 257.932 C 1806.075 210.217, 1815.024 173.893, 1814.982 133.699 C 1814.939 93.163, 1805.319 62.013, 1783.809 32.753 C 1777.361 23.981, 1762.136 8.464, 1757.616 6.055 C 1754.933 4.626, 1754.813 4.702, 1746.593 13.055 C 1742.022 17.700, 1689.303 71.675, 1629.439 133 C 1569.574 194.325, 1499.423 266.100, 1473.546 292.500 C 1447.669 318.900, 1422.019 345.120, 1416.546 350.766 C 1411.073 356.412, 1406.275 360.912, 1405.884 360.766 C 1405.493 360.620, 1402.606 357.350, 1399.468 353.500 C 1396.331 349.650, 1388.305 340.704, 1381.632 333.620 C 1374.959 326.536, 1369.345 320.333, 1369.155 319.836 C 1368.966 319.339, 1358.616 309.443, 1346.155 297.846 C 1292.632 248.030, 1242.960 212.910, 1186.500 184.964 C 1148.522 166.166, 1122.925 156.543, 1087.168 147.620 C 1016.161 129.901, 952.615 129.699, 881.500 146.968 C 860.416 152.088, 844.672 156.924, 827.107 163.676 C 737.138 198.262, 649.197 263.788, 582.492 345.944 C 578.418 350.962, 574.905 355.165, 574.685 355.284 C 574.183 355.556, 547.279 329.532, 511.828 294.481 C 484.483 267.445, 391.867 176.069, 275.663 61.479 C 241.653 27.940, 213.195 0.355, 212.423 0.179 C 211.570 -0.017, 208.238 4.098, 203.921 10.679 M 211.946 57.750 C 201.410 84.681, 197.481 106.346, 197.576 137 C 197.638 157.179, 199.113 171.174, 203.164 190 C 213.592 238.463, 239.944 293.034, 275.198 339.169 C 279.380 344.640, 311.559 378.789, 350.500 419.079 C 387.900 457.774, 435.357 506.887, 455.959 528.217 C 476.562 549.548, 493.723 567, 494.096 567 C 494.468 567, 495.086 564.862, 495.469 562.250 C 495.853 559.638, 498.844 544.988, 502.117 529.696 L 508.067 501.891 446.784 439.196 C 413.078 404.714, 375.809 366.601, 363.963 354.501 C 352.118 342.400, 338.572 328, 333.861 322.500 C 311.670 296.592, 292.781 268.442, 279.511 241.500 C 269.083 220.327, 264.474 208.579, 259.556 190.632 C 253.598 168.897, 252.536 160.804, 252.517 137 C 252.499 114.686, 253.542 106.257, 257.931 93.222 L 259.708 87.944 238.483 67.472 C 226.809 56.212, 217.009 47, 216.705 47 C 216.401 47, 214.259 51.837, 211.946 57.750 M 1738.926 68.115 L 1721.722 88.230 1724.334 96.365 C 1728.508 109.368, 1729.052 112.644, 1729.668 128.500 C 1730.106 139.773, 1729.842 146.272, 1728.605 154.654 C 1716.465 236.931, 1639.040 344.255, 1495 478.471 C 1481.525 491.027, 1469.306 502.470, 1467.846 503.900 L 1465.192 506.500 1469.063 518.189 C 1473.690 532.159, 1477.689 547.349, 1479.351 557.264 L 1480.563 564.500 1495.015 551 C 1644.034 411.795, 1731.429 305.970, 1764.896 224.208 C 1779.215 189.224, 1784.776 161.819, 1783.695 131.554 C 1782.885 108.876, 1778.450 89.834, 1769.357 70 C 1765.080 60.672, 1757.898 48, 1756.887 48 C 1756.471 48, 1748.389 57.052, 1738.926 68.115 M 526.346 689.541 C 525.580 691.537, 527.565 712.993, 530.012 729.161 C 543.344 817.255, 581.681 897.384, 638.492 955.898 C 668.700 987.011, 698.853 1009.095, 738.653 1029.254 C 793.946 1057.261, 852.818 1072.570, 930.500 1079.140 C 950.038 1080.793, 1014.045 1080.823, 1033 1079.189 C 1093.562 1073.966, 1142.549 1063.119, 1188.500 1044.757 C 1266.598 1013.550, 1330.478 961.815, 1377.059 892.047 C 1405.823 848.966, 1428.146 798.072, 1441.446 745.254 C 1448.186 718.486, 1452.658 692.190, 1450.605 691.402 C 1449.995 691.168, 1432.021 691.094, 1410.663 691.238 L 1371.831 691.500 1368.966 702.628 C 1357.591 746.803, 1333.164 788.556, 1303.816 813.987 C 1270.881 842.527, 1227.116 857.567, 1182.500 855.680 C 1154.104 854.478, 1130.839 846.932, 1107.082 831.218 C 1097.687 825.003, 1080.764 809.209, 1071.936 798.416 C 1052.682 774.875, 1034.473 737.849, 1025.667 704.335 L 1022.295 691.500 984.009 691.500 L 945.723 691.500 942.406 703.176 C 933.625 734.082, 917.862 766.329, 900.323 789.270 C 892.296 799.769, 876.047 815.820, 865 824.162 C 847.384 837.464, 822.645 848.379, 800.858 852.461 C 754.560 861.137, 709.071 850.410, 674.500 822.664 C 642.011 796.589, 613.646 750.694, 599.926 702 C 598.144 695.675, 595.995 689.938, 595.152 689.250 C 593.993 688.306, 585.465 688, 560.277 688 C 531.167 688, 526.862 688.196, 526.346 689.541 M 970 885.886 C 958.046 889.751, 949.324 896.336, 942.807 906.420 C 923.952 935.593, 939.461 974.532, 973.093 982.460 C 1002.008 989.276, 1030.063 970.033, 1034.323 940.463 C 1037.665 917.265, 1023.563 894.302, 1001.107 886.374 C 992.688 883.403, 978.376 883.178, 970 885.886 M 128.025 1017.250 L 128.050 1033.500 143.316 1048.132 L 158.582 1062.764 190.262 1032.632 L 221.942 1002.500 199.721 1001.879 C 187.500 1001.538, 166.363 1001.200, 152.750 1001.129 L 128 1001 128.025 1017.250 M 301.171 1004.750 C 310.619 1014.959, 356.303 1062.549, 356.854 1062.756 C 357.442 1062.977, 374.941 1045.153, 407.423 1011.250 L 416.285 1002 357.455 1002 L 298.626 1002 301.171 1004.750 M 493 1002.588 C 493 1003.762, 553.144 1064.500, 554.306 1064.500 C 554.963 1064.500, 560.450 1059.314, 566.500 1052.975 C 584.171 1034.460, 606.415 1010.796, 609.797 1006.912 L 612.922 1003.324 570.211 1002.664 C 517.358 1001.846, 493 1001.822, 493 1002.588 M 35.665 1013.750 C 25.136 1056.601, 24.370 1102.595, 33.488 1144.460 C 34.810 1150.532, 36.722 1158.200, 37.737 1161.500 L 39.581 1167.500 68.791 1167.765 L 98 1168.030 98 1085.515 L 98 1003 68.153 1003 L 38.307 1003 35.665 1013.750 M 1863.072 1016.750 C 1855.596 1032.152, 1846.519 1045.240, 1834.806 1057.509 C 1816.671 1076.503, 1800.333 1088.282, 1774.500 1100.989 C 1751.104 1112.497, 1730.611 1119.679, 1707.386 1124.511 L 1695.500 1126.984 1482.750 1126.992 C 1311.589 1126.998, 1270 1127.248, 1270 1128.268 C 1270 1128.966, 1271.116 1134.474, 1272.479 1140.510 C 1273.843 1146.545, 1275.494 1155.987, 1276.148 1161.491 C 1276.802 1166.996, 1277.599 1171.802, 1277.918 1172.172 C 1278.238 1172.541, 1376.825 1172.935, 1497 1173.047 C 1659.351 1173.199, 1718.070 1172.949, 1725.500 1172.074 C 1780.419 1165.612, 1823.382 1150.206, 1861.120 1123.443 C 1872.500 1115.372, 1895.907 1091.785, 1904.231 1080 C 1911.973 1069.037, 1922.405 1049.360, 1927.325 1036.437 C 1930.974 1026.853, 1936 1010.124, 1936 1007.562 C 1936 1006.177, 1932.167 1006, 1902.145 1006 L 1868.291 1006 1863.072 1016.750 M 220.500 1047.466 L 181.500 1085.860 220.143 1124.430 C 241.396 1145.643, 259.223 1163, 259.758 1163 C 260.293 1163, 272.817 1150.513, 287.589 1135.250 C 302.361 1119.987, 319.286 1102.537, 325.200 1096.471 L 335.953 1085.443 297.726 1047.258 L 259.500 1009.073 220.500 1047.466 M 414.500 1047.011 C 394.700 1067.350, 378.500 1084.391, 378.500 1084.880 C 378.500 1085.369, 394.831 1102.868, 414.791 1123.767 C 452.428 1163.176, 452.225 1163, 460.104 1163 C 462.566 1163, 467.964 1157.680, 499.422 1124.250 L 535.885 1085.500 526.171 1075.500 C 520.828 1070, 504.261 1053.013, 489.355 1037.750 L 462.252 1010 456.376 1010.015 L 450.500 1010.030 414.500 1047.011 M 611.245 1050.255 C 591.860 1069.646, 576 1086.008, 576 1086.617 C 576 1088.385, 655.843 1169.468, 657.917 1169.806 C 659.308 1170.033, 665.477 1163.253, 681.820 1143.537 C 703.191 1117.756, 703.929 1116.717, 706.558 1108.731 C 708.049 1104.204, 711.683 1094.349, 714.634 1086.831 C 717.585 1079.313, 720 1072.740, 720 1072.223 C 720 1071.706, 717.413 1069.574, 714.250 1067.485 C 699.505 1057.744, 669.040 1033.983, 651 1018.153 C 649.075 1016.463, 647.273 1015.063, 646.995 1015.041 C 646.717 1015.018, 630.629 1030.865, 611.245 1050.255 M 127 1081 C 127 1087.050, 127.354 1092, 127.788 1092 C 129.149 1092, 138.250 1082.245, 137.866 1081.198 C 137.432 1080.014, 128.126 1070, 127.460 1070 C 127.207 1070, 127 1074.950, 127 1081 M 1190.500 1079.422 C 1177.300 1083.895, 1158.400 1089.546, 1148.500 1091.979 C 1138.600 1094.412, 1130.343 1096.507, 1130.151 1096.634 C 1129.959 1096.761, 1132.087 1113.208, 1134.881 1133.182 C 1137.674 1153.157, 1140.252 1171.862, 1140.609 1174.750 C 1140.966 1177.638, 1141.548 1180, 1141.904 1180 C 1146.409 1180, 1193.294 1166.945, 1217.750 1158.880 C 1242.495 1150.721, 1240.421 1153.404, 1236.510 1134.609 C 1231.849 1112.206, 1225.007 1090.881, 1218.075 1077.149 C 1216.368 1073.767, 1214.865 1071.065, 1214.736 1071.144 C 1214.606 1071.223, 1203.700 1074.948, 1190.500 1079.422 M 752.190 1084.250 C 746.373 1098.425, 740.314 1115.710, 735.529 1131.781 L 732.171 1143.061 738.892 1146.446 C 761.735 1157.949, 823.419 1179.198, 825.882 1176.412 C 826.325 1175.911, 827.893 1168.525, 829.366 1160 C 830.840 1151.475, 834.114 1133.792, 836.644 1120.705 C 839.173 1107.618, 841.054 1096.721, 840.823 1096.490 C 840.592 1096.259, 830.454 1093.577, 818.294 1090.529 C 806.134 1087.481, 787.611 1082.066, 777.133 1078.494 C 766.655 1074.922, 757.888 1072, 757.650 1072 C 757.412 1072, 754.955 1077.513, 752.190 1084.250 M 866.571 1104.200 C 864.510 1116.837, 855.920 1184.253, 856.320 1184.653 C 857.019 1185.352, 898.462 1191.995, 911 1193.417 C 927.873 1195.332, 947.895 1196.877, 959 1197.122 L 967.500 1197.309 967.761 1154.718 L 968.021 1112.126 963.761 1111.608 C 961.417 1111.323, 953.875 1110.830, 947 1110.512 C 926.926 1109.584, 876.454 1103.709, 868.805 1101.409 C 867.512 1101.021, 866.982 1101.683, 866.571 1104.200 M 1086 1104.548 C 1065.165 1107.863, 1020.539 1111.926, 1004.250 1111.991 L 1002 1112 1002 1155.050 L 1002 1198.099 1007.750 1197.578 C 1010.913 1197.291, 1019.125 1196.797, 1026 1196.479 C 1052.950 1195.234, 1109.269 1188.064, 1111.774 1185.560 C 1112.620 1184.713, 1109.531 1156.530, 1105.412 1127.525 C 1103.536 1114.311, 1102 1103.162, 1102 1102.750 C 1102 1102.338, 1101.662 1102.054, 1101.250 1102.120 C 1100.838 1102.186, 1093.975 1103.279, 1086 1104.548 M 143.859 1122.730 L 127.218 1139.500 126.709 1153.601 L 126.200 1167.702 138.850 1168.347 C 157.549 1169.300, 221.220 1169.138, 220.833 1168.138 C 220.246 1166.618, 162.728 1106.511, 161.592 1106.230 C 160.992 1106.081, 153.012 1113.506, 143.859 1122.730 M 338.334 1124.981 C 328.343 1135.166, 314.689 1149.237, 307.993 1156.250 L 295.817 1169 358.150 1169 L 420.484 1169 396.992 1145.434 C 384.071 1132.472, 369.675 1118.401, 365 1114.164 L 356.500 1106.462 338.334 1124.981 M 524.852 1137.648 L 493.512 1169 511.006 1169.001 C 520.628 1169.002, 548.475 1169.301, 572.888 1169.666 C 606.308 1170.166, 617.181 1170.044, 616.888 1169.173 C 616.675 1168.537, 602.931 1154.129, 586.346 1137.156 L 556.193 1106.295 524.852 1137.648 M 724.071 1182.511 C 721.904 1194.960, 720.021 1216.576, 720.011 1229.147 L 720 1241.793 737.250 1250.314 C 761.968 1262.523, 781.858 1270.682, 803.704 1277.572 L 813.909 1280.790 814.398 1276.645 C 814.666 1274.365, 815.390 1265.975, 816.005 1258 C 816.987 1245.276, 820.148 1217.272, 821.433 1209.914 C 821.880 1207.355, 821.712 1207.282, 805.692 1203.047 C 785.674 1197.755, 758.955 1188.937, 740.624 1181.574 C 732.993 1178.508, 726.401 1176, 725.977 1176 C 725.553 1176, 724.695 1178.930, 724.071 1182.511 M 1226.581 1190.564 C 1209.921 1195.795, 1186.854 1201.697, 1163 1206.829 C 1145.982 1210.491, 1145.504 1210.663, 1145.660 1213.048 C 1145.748 1214.396, 1147.323 1230.501, 1149.160 1248.835 L 1152.500 1282.170 1156.500 1281.551 C 1168.552 1279.685, 1217.567 1264.903, 1237.900 1257.003 L 1246.299 1253.739 1245.663 1226.120 C 1244.884 1192.260, 1244.325 1185.964, 1242.111 1186.096 C 1241.225 1186.149, 1234.236 1188.160, 1226.581 1190.564 M 369.167 1210.870 C 387.598 1230.489, 453.230 1297.998, 453.843 1297.970 C 454.205 1297.953, 476.325 1276.374, 503 1250.017 L 551.500 1202.096 456.167 1202.048 L 360.833 1202 369.167 1210.870 M 1426.310 1211.965 C 1429.963 1216.076, 1456.818 1244.906, 1465.941 1254.512 C 1470.648 1259.468, 1483.445 1273.081, 1494.378 1284.762 C 1505.311 1296.443, 1514.536 1305.966, 1514.878 1305.923 C 1515.437 1305.855, 1536.437 1283.524, 1565 1252.625 C 1570.775 1246.378, 1581.915 1234.508, 1589.756 1226.248 L 1604.012 1211.230 1573.756 1210.586 C 1557.115 1210.231, 1516.639 1209.842, 1483.810 1209.721 L 1424.120 1209.500 1426.310 1211.965 M 852.702 1214.691 C 851.901 1216.020, 844.683 1288.016, 845.291 1288.624 C 847.170 1290.503, 885.497 1297.332, 908.989 1299.974 C 925.746 1301.859, 965.834 1304.558, 966.437 1303.842 C 966.596 1303.654, 967.028 1286.109, 967.398 1264.853 L 968.070 1226.205 955.285 1225.548 C 920.686 1223.770, 879.401 1219.148, 855.845 1214.416 C 854.385 1214.123, 852.971 1214.247, 852.702 1214.691 M 1102 1217.591 C 1080.700 1220.903, 1044.578 1224.242, 1015.750 1225.565 L 1001 1226.242 1001 1264.621 L 1001 1303 1009.750 1302.994 C 1019.615 1302.988, 1047.228 1300.743, 1066 1298.422 C 1078.718 1296.849, 1113.066 1291.364, 1116.250 1290.397 C 1117.806 1289.924, 1118 1288.346, 1117.998 1276.183 C 1117.996 1262.036, 1116.426 1227.724, 1115.439 1220.250 C 1114.795 1215.378, 1115.431 1215.503, 1102 1217.591 M 1489.156 1377.652 C 1410.145 1456.111, 1329.779 1535.958, 1310.565 1555.089 L 1275.631 1589.873 1318.966 1632.686 C 1342.801 1656.234, 1362.854 1675.500, 1363.529 1675.500 C 1364.204 1675.500, 1416.632 1622.850, 1480.035 1558.500 C 1543.439 1494.150, 1622.264 1414.198, 1655.202 1380.829 L 1715.090 1320.158 1674.417 1277.579 C 1652.047 1254.160, 1633.535 1235, 1633.278 1235 C 1633.022 1235, 1568.166 1299.194, 1489.156 1377.652 M 295.898 1276.529 C 273.129 1298.950, 254.141 1317.610, 253.702 1317.995 C 253.063 1318.556, 475.081 1544.024, 582.041 1651.435 L 605.875 1675.370 635.188 1646.836 C 651.309 1631.142, 670.575 1612.438, 678 1605.272 L 691.500 1592.242 615 1515.385 C 522.662 1422.616, 393.300 1292.417, 360.891 1259.631 L 337.296 1235.762 295.898 1276.529 M 657.357 1309.660 C 638.736 1327.623, 608.538 1356.724, 590.250 1374.329 C 571.962 1391.934, 557.023 1406.600, 557.052 1406.919 C 557.081 1407.239, 565.518 1416.167, 575.802 1426.760 L 594.500 1446.020 649.685 1390.760 L 704.870 1335.500 701.375 1323.500 C 697.997 1311.903, 693 1285.902, 693 1279.921 C 693 1278.314, 692.598 1277, 692.107 1277 C 691.617 1277, 675.979 1291.697, 657.357 1309.660 M 1276.518 1285.698 C 1275.469 1299.467, 1272.361 1319.848, 1269.460 1331.980 L 1266.811 1343.060 1279.156 1355.813 C 1285.945 1362.828, 1308.813 1386.478, 1329.973 1408.369 L 1368.447 1448.170 1388.903 1427.517 L 1409.359 1406.864 1344.039 1342.182 C 1308.114 1306.607, 1278.375 1277.364, 1277.954 1277.198 C 1277.533 1277.032, 1276.887 1280.857, 1276.518 1285.698 M 723.005 1278.643 C 723.008 1279.114, 724.781 1286.250, 726.947 1294.500 C 752.247 1390.900, 804.010 1456.846, 877.500 1486.303 C 904.073 1496.954, 927.150 1501.565, 959.500 1502.688 C 1003.503 1504.215, 1048.325 1495.144, 1091.783 1475.919 C 1178.268 1437.659, 1237.488 1367.422, 1240.742 1299.250 C 1241.037 1293.063, 1241.085 1288, 1240.848 1288 C 1240.611 1288, 1234.360 1290.039, 1226.958 1292.530 C 1115.761 1329.960, 994.481 1341.226, 884 1324.387 C 831.639 1316.406, 779.999 1302.367, 740.916 1285.486 C 732.437 1281.824, 724.938 1278.594, 724.250 1278.307 C 723.563 1278.020, 723.002 1278.172, 723.005 1278.643 M 1565.077 1523.018 L 1507.787 1581.036 1527.312 1601.268 C 1538.051 1612.396, 1557.870 1632.750, 1571.354 1646.500 L 1595.871 1671.500 1653.685 1613.111 C 1685.483 1580.997, 1711.668 1554.279, 1711.874 1553.739 C 1712.312 1552.588, 1625.022 1465, 1623.438 1465 C 1622.849 1465, 1596.586 1491.108, 1565.077 1523.018 M 323.500 1488.185 C 311.400 1499.790, 292.725 1517.722, 282 1528.035 C 271.275 1538.347, 261.415 1547.661, 260.089 1548.732 L 257.679 1550.679 314.032 1609.589 C 345.026 1641.990, 370.637 1668.613, 370.945 1668.751 C 371.254 1668.889, 391.753 1648.752, 416.498 1624.002 C 451.142 1589.352, 461.262 1578.683, 460.495 1577.619 C 459.182 1575.796, 347.015 1467.561, 346.160 1467.292 C 345.797 1467.178, 335.600 1476.580, 323.500 1488.185 M 211.250 1599.590 C 200.113 1610.357, 191 1619.711, 191 1620.375 C 191 1622.206, 200.494 1637.347, 208.144 1647.714 C 226.849 1673.065, 257.596 1703.406, 291.426 1729.895 L 302.147 1738.290 323.323 1716.474 C 334.971 1704.475, 344.500 1694.347, 344.500 1693.968 C 344.500 1693.281, 232.515 1579.994, 231.849 1580.006 C 231.657 1580.010, 222.387 1588.823, 211.250 1599.590 M 1678.673 1639.050 C 1646.953 1671.059, 1621.021 1697.530, 1621.047 1697.874 C 1621.073 1698.218, 1630.643 1708.330, 1642.315 1720.344 L 1663.535 1742.188 1678.518 1732.149 C 1726.409 1700.061, 1761.141 1664.516, 1777.625 1630.724 L 1780.442 1624.948 1758.394 1602.900 L 1736.347 1580.852 1678.673 1639.050" stroke="none" fill="#040404" fill-rule="evenodd"/></svg>